<svg width="12" height="17" viewBox="0 0 12 17" fill="none" xmlns="http://www.w3.org/2000/svg">
<path d="M6 0.764648C6.55228 0.764648 7 1.21236 7 1.76465V15.7646C7 16.3169 6.55228 16.7646 6 16.7646C5.44772 16.7646 5 16.3169 5 15.7646V1.76465C5 1.21236 5.44772 0.764648 6 0.764648ZM11 4.76465C11.5523 4.76465 12 5.21236 12 5.76465V15.7646C12 16.3169 11.5523 16.7646 11 16.7646C10.4477 16.7646 10 16.3169 10 15.7646V5.76465C10 5.21236 10.4477 4.76465 11 4.76465ZM1 8.76465C1.55228 8.76465 2 9.21236 2 9.76465V15.7646C2 16.3169 1.55228 16.7646 1 16.7646C0.447715 16.7646 0 16.3169 0 15.7646V9.76465C0 9.21236 0.447715 8.76465 1 8.76465Z" fill="#231403"/>
</svg>
