<svg width="18" height="19" viewBox="0 0 18 19" fill="none" xmlns="http://www.w3.org/2000/svg">
<path d="M0 2.76465C0 1.66008 0.895431 0.764648 2 0.764648H16C17.1046 0.764648 18 1.66008 18 2.76465V16.7646C18 17.8692 17.1046 18.7646 16 18.7646H2C0.895431 18.7646 0 17.8692 0 16.7646V2.76465ZM16 2.76465H2V16.7646H16V2.76465ZM9 4.76465C9.55229 4.76465 10 5.21236 10 5.76465V13.7646C10 14.3169 9.55229 14.7646 9 14.7646C8.44772 14.7646 8 14.3169 8 13.7646V5.76465C8 5.21236 8.44772 4.76465 9 4.76465ZM13 6.76465C13.5523 6.76465 14 7.21236 14 7.76465V13.7646C14 14.3169 13.5523 14.7646 13 14.7646C12.4477 14.7646 12 14.3169 12 13.7646V7.76465C12 7.21236 12.4477 6.76465 13 6.76465ZM5 8.76465C5.55228 8.76465 6 9.21236 6 9.76465V13.7646C6 14.3169 5.55228 14.7646 5 14.7646C4.44772 14.7646 4 14.3169 4 13.7646V9.76465C4 9.21236 4.44772 8.76465 5 8.76465Z" fill="#231403"/>
</svg>
