<svg width="24" height="25" viewBox="0 0 24 25" fill="none" xmlns="http://www.w3.org/2000/svg">
<path d="M7 4.76465C6.44772 4.76465 6 5.21236 6 5.76465V12.7646V19.7646C6 20.3169 6.44772 20.7646 7 20.7646H13.5C15.9853 20.7646 18 18.7499 18 16.2646C18 14.3222 16.7692 12.6671 15.0449 12.0369C15.6433 11.2728 16 10.3104 16 9.26465C16 6.77937 13.9853 4.76465 11.5 4.76465H7ZM11.5 11.7646H8V6.76465H11.5C12.8807 6.76465 14 7.88394 14 9.26465C14 10.6454 12.8807 11.7646 11.5 11.7646ZM8 13.7646H11.5H13.5C14.8807 13.7646 16 14.8839 16 16.2646C16 17.6454 14.8807 18.7646 13.5 18.7646H8V13.7646Z" fill="#231403"/>
</svg>
