<svg width="24" height="25" viewBox="0 0 24 25" fill="none" xmlns="http://www.w3.org/2000/svg">
<path d="M4 7.39815C4.13986 7.34161 4.308 7.27916 4.50288 7.21618C5.19213 6.99339 6.21301 6.76465 7.5 6.76465C8.78699 6.76465 9.80787 6.99339 10.4971 7.21618C10.692 7.27916 10.8601 7.34161 11 7.39815V18.2775C10.1488 18.0132 8.96016 17.7646 7.5 17.7646C6.03984 17.7646 4.85122 18.0132 4 18.2775V7.39815ZM12 5.64993C11.7743 5.54984 11.4765 5.43087 11.1123 5.31312C10.2546 5.03591 9.02551 4.76465 7.5 4.76465C5.97449 4.76465 4.74537 5.03591 3.88775 5.31312C3.45896 5.45172 3.12235 5.59201 2.88689 5.70121C2.76911 5.75583 2.67645 5.80276 2.61002 5.83794C2.5768 5.85554 2.55011 5.8702 2.5301 5.88143L2.5051 5.89565L2.49638 5.90072L2.49297 5.90272L2.49151 5.90358C2.48954 5.90475 2.2451 6.0496 2.4902 5.90436C2.18633 6.08443 2 6.41144 2 6.76465V19.7646C2 20.1239 2.19275 20.4556 2.50493 20.6335C2.8169 20.8113 3.20021 20.8081 3.50921 20.6253C3.50648 20.6268 3.50477 20.6279 3.50477 20.6279L3.50609 20.6271L3.50765 20.6262L3.50921 20.6253C3.51529 20.6219 3.52757 20.6152 3.54599 20.6054C3.58283 20.5859 3.64398 20.5547 3.72834 20.5156C3.89718 20.4373 4.15822 20.3276 4.50288 20.2162C5.19213 19.9934 6.21301 19.7646 7.5 19.7646C8.78699 19.7646 9.80787 19.9934 10.4971 20.2162C10.8418 20.3276 11.1028 20.4373 11.2717 20.5156C11.356 20.5547 11.4172 20.5859 11.454 20.6054C11.4724 20.6152 11.4847 20.622 11.4908 20.6254C11.4936 20.6269 11.4952 20.6279 11.4952 20.6279M11.4952 20.6279L11.4939 20.6271L11.4924 20.6262L11.4908 20.6254C11.8048 20.8109 12.1954 20.811 12.5092 20.6253C12.5153 20.6219 12.5276 20.6152 12.546 20.6054C12.5828 20.5859 12.644 20.5547 12.7283 20.5156C12.8972 20.4373 13.1582 20.3276 13.5029 20.2162C14.1921 19.9934 15.213 19.7646 16.5 19.7646C17.787 19.7646 18.8079 19.9934 19.4971 20.2162C19.8418 20.3276 20.1028 20.4373 20.2717 20.5156C20.356 20.5547 20.4172 20.5859 20.454 20.6054C20.4724 20.6152 20.4847 20.622 20.4908 20.6254L20.4919 20.6259C20.8007 20.8081 21.1835 20.811 21.4951 20.6335C21.8072 20.4556 22 20.1239 22 19.7646V6.76465C22 6.41144 21.8137 6.08443 21.5098 5.90436L21.5085 5.90358L21.507 5.90272L21.5036 5.90072L21.4949 5.89565L21.4699 5.88143C21.4499 5.8702 21.4232 5.85554 21.39 5.83794C21.3236 5.80276 21.2309 5.75583 21.1131 5.70121C20.8776 5.59201 20.541 5.45172 20.1123 5.31312C19.2546 5.03591 18.0255 4.76465 16.5 4.76465C14.9745 4.76465 13.7454 5.03591 12.8877 5.31312C12.5235 5.43087 12.2257 5.54984 12 5.64993M20 7.39815V18.2776C19.1488 18.0132 17.9602 17.7646 16.5 17.7646C15.0398 17.7646 13.8512 18.0132 13 18.2775V7.39815C13.1399 7.34161 13.308 7.27916 13.5029 7.21618C14.1921 6.99339 15.213 6.76465 16.5 6.76465C17.787 6.76465 18.8079 6.99339 19.4971 7.21618C19.692 7.27916 19.8601 7.34161 20 7.39815ZM20.4908 7.6254C20.4935 7.62693 20.4952 7.62789 20.4952 7.62789L20.4939 7.62713L20.4908 7.6254ZM20.4908 20.6254L20.4941 20.6273L20.4919 20.6259" fill="#231403"/>
</svg>
