<svg width="16" height="21" viewBox="0 0 16 21" fill="none" xmlns="http://www.w3.org/2000/svg">
<path d="M0 2.76465C0 1.66008 0.89543 0.764648 2 0.764648H14C15.1046 0.764648 16 1.66008 16 2.76465V19.7646C16 20.1392 15.7907 20.4824 15.4576 20.6538C15.1245 20.8252 14.7236 20.7961 14.4188 20.5784L8 15.9936L1.58124 20.5784C1.27642 20.7961 0.87549 20.8252 0.542418 20.6538C0.209347 20.4824 0 20.1392 0 19.7646V2.76465ZM14 2.76465L2 2.76465V17.8215L7.41876 13.9509C7.76646 13.7026 8.23354 13.7026 8.58124 13.9509L14 17.8215V2.76465Z" fill="#231403"/>
</svg>
