<svg width="18" height="20" viewBox="0 0 18 20" fill="none" xmlns="http://www.w3.org/2000/svg">
<path d="M6 0.764648C6.55228 0.764648 7 1.21236 7 1.76465V2.76465H11V1.76465C11 1.21236 11.4477 0.764648 12 0.764648C12.5523 0.764648 13 1.21236 13 1.76465V2.76465H16C17.1046 2.76465 18 3.66008 18 4.76465V17.7646C18 18.8692 17.1046 19.7646 16 19.7646H2C0.895431 19.7646 0 18.8692 0 17.7646V4.76465C0 3.66008 0.895431 2.76465 2 2.76465H5V1.76465C5 1.21236 5.44772 0.764648 6 0.764648ZM5 4.76465H2V7.76465H16V4.76465H13V5.76465C13 6.31693 12.5523 6.76465 12 6.76465C11.4477 6.76465 11 6.31693 11 5.76465V4.76465H7V5.76465C7 6.31693 6.55228 6.76465 6 6.76465C5.44772 6.76465 5 6.31693 5 5.76465V4.76465ZM16 9.76465H2V17.7646H16V9.76465Z" fill="#231403"/>
</svg>
