<svg width="24" height="25" viewBox="0 0 24 25" fill="none" xmlns="http://www.w3.org/2000/svg">
<path d="M3.83319 4.76465H8.32313L9.77034 8.38268L7.44546 9.9326C7.16727 10.1181 7.00016 10.4303 7.00016 10.7646C7.0027 10.8583 7.00017 10.7656 7.00017 10.7656L7.00017 10.7667L7.00017 10.7689L7.0002 10.774L7.00035 10.7863C7.0005 10.7955 7.00075 10.8067 7.00117 10.8198C7.00202 10.8461 7.00355 10.8799 7.00629 10.921C7.01176 11.0031 7.02208 11.1141 7.04147 11.2498C7.08022 11.5211 7.15544 11.8928 7.30148 12.3309C7.59472 13.2106 8.1709 14.3496 9.29306 15.4718C10.4152 16.5939 11.5542 17.1701 12.4339 17.4633C12.8721 17.6094 13.2437 17.6846 13.515 17.7233C13.6507 17.7427 13.7617 17.7531 13.8438 17.7585C13.8849 17.7613 13.9188 17.7628 13.945 17.7636C13.9581 17.7641 13.9693 17.7643 13.9785 17.7645L13.9908 17.7646L13.9959 17.7646L13.9981 17.7646L13.9992 17.7646C13.9992 17.7646 14.1108 17.7585 14.0002 17.7646C14.3789 17.7646 14.7252 17.5506 14.8946 17.2119L15.5643 15.8725L20.0002 16.6118V20.9316C17.8891 21.2369 12.1876 21.5378 7.70727 17.0575C3.22697 12.5772 3.52788 6.87575 3.83319 4.76465ZM9.07381 11.2507L10.8797 10.0468C11.6667 9.52216 11.9785 8.51803 11.6273 7.6399L10.1801 4.02187C9.87636 3.26255 9.14094 2.76465 8.32313 2.76465H3.78094C2.87243 2.76465 2.01725 3.39581 1.86811 4.38155C1.5288 6.62415 1.06695 13.2456 6.29306 18.4718C11.5192 23.6979 18.1407 23.236 20.3833 22.8967C21.369 22.7476 22.0002 21.8924 22.0002 20.9839V16.6118C22.0002 15.6341 21.2933 14.7997 20.329 14.639L15.8931 13.8997C15.027 13.7553 14.1681 14.1927 13.7754 14.978L13.4289 15.671C13.32 15.6443 13.1985 15.61 13.0664 15.566C12.4461 15.3592 11.5851 14.9354 10.7073 14.0575C9.82943 13.1797 9.40561 12.3187 9.19885 11.6984C9.14298 11.5308 9.10275 11.3801 9.07381 11.2507Z" fill="#231403"/>
</svg>
