<svg width="24" height="25" viewBox="0 0 24 25" fill="none" xmlns="http://www.w3.org/2000/svg">
<path d="M8.29289 5.05754C8.48043 4.87001 8.73478 4.76465 9 4.76465H15C15.2652 4.76465 15.5196 4.87001 15.7071 5.05754L17.4142 6.76465H20C21.1046 6.76465 22 7.66008 22 8.76465V18.7646C22 19.8692 21.1046 20.7646 20 20.7646H4C2.89543 20.7646 2 19.8692 2 18.7646V8.76465C2 7.66008 2.89543 6.76465 4 6.76465H6.58579L8.29289 5.05754ZM9.41421 6.76465L7.70711 8.47176C7.51957 8.65929 7.26522 8.76465 7 8.76465L4 8.76465V18.7646H20V8.76465H17C16.7348 8.76465 16.4804 8.65929 16.2929 8.47176L14.5858 6.76465H9.41421ZM12 11.2646C10.8954 11.2646 10 12.1601 10 13.2646C10 14.3692 10.8954 15.2646 12 15.2646C13.1046 15.2646 14 14.3692 14 13.2646C14 12.1601 13.1046 11.2646 12 11.2646ZM8 13.2646C8 11.0555 9.79086 9.26465 12 9.26465C14.2091 9.26465 16 11.0555 16 13.2646C16 15.4738 14.2091 17.2646 12 17.2646C9.79086 17.2646 8 15.4738 8 13.2646Z" fill="#231403"/>
</svg>
