<svg width="20" height="21" viewBox="0 0 20 21" fill="none" xmlns="http://www.w3.org/2000/svg">
<path d="M10 2.76465C5.58172 2.76465 2 6.34637 2 10.7646C2 15.1829 5.58172 18.7646 10 18.7646C14.4183 18.7646 18 15.1829 18 10.7646C18 6.34637 14.4183 2.76465 10 2.76465ZM0 10.7646C0 5.2418 4.47715 0.764648 10 0.764648C15.5228 0.764648 20 5.2418 20 10.7646C20 16.2875 15.5228 20.7646 10 20.7646C4.47715 20.7646 0 16.2875 0 10.7646ZM5.79289 6.55754C6.18342 6.16702 6.81658 6.16702 7.20711 6.55754L10 9.35044L12.7929 6.55754C13.1834 6.16702 13.8166 6.16702 14.2071 6.55754C14.5976 6.94807 14.5976 7.58123 14.2071 7.97176L11.4142 10.7646L14.2071 13.5575C14.5976 13.9481 14.5976 14.5812 14.2071 14.9718C13.8166 15.3623 13.1834 15.3623 12.7929 14.9718L10 12.1789L7.20711 14.9718C6.81658 15.3623 6.18342 15.3623 5.79289 14.9718C5.40237 14.5812 5.40237 13.9481 5.79289 13.5575L8.58579 10.7646L5.79289 7.97176C5.40237 7.58123 5.40237 6.94807 5.79289 6.55754Z" fill="#231403"/>
</svg>
