<svg width="20" height="21" viewBox="0 0 20 21" fill="none" xmlns="http://www.w3.org/2000/svg">
<path d="M10 2.76465C5.58172 2.76465 2 6.34637 2 10.7646C2 15.1829 5.58172 18.7646 10 18.7646C14.4183 18.7646 18 15.1829 18 10.7646C18 6.34637 14.4183 2.76465 10 2.76465ZM0 10.7646C0 5.2418 4.47715 0.764648 10 0.764648C15.5228 0.764648 20 5.2418 20 10.7646C20 16.2875 15.5228 20.7646 10 20.7646C4.47715 20.7646 0 16.2875 0 10.7646ZM10.2929 6.05754C10.6834 5.66702 11.3166 5.66702 11.7071 6.05754L15.7071 10.0575C16.0976 10.4481 16.0976 11.0812 15.7071 11.4718L11.7071 15.4718C11.3166 15.8623 10.6834 15.8623 10.2929 15.4718C9.90237 15.0812 9.90237 14.4481 10.2929 14.0575L12.5858 11.7646H5C4.44772 11.7646 4 11.3169 4 10.7646C4 10.2124 4.44772 9.76465 5 9.76465H12.5858L10.2929 7.47175C9.90237 7.08123 9.90237 6.44807 10.2929 6.05754Z" fill="#231403"/>
</svg>
