<svg width="20" height="21" viewBox="0 0 20 21" fill="none" xmlns="http://www.w3.org/2000/svg">
<path d="M10 2.76465C5.58172 2.76465 2 6.34637 2 10.7646C2 15.1829 5.58172 18.7646 10 18.7646C14.4183 18.7646 18 15.1829 18 10.7646C18 6.34637 14.4183 2.76465 10 2.76465ZM0 10.7646C0 5.2418 4.47715 0.764648 10 0.764648C15.5228 0.764648 20 5.2418 20 10.7646C20 16.2875 15.5228 20.7646 10 20.7646C4.47715 20.7646 0 16.2875 0 10.7646ZM10 4.76465C10.5523 4.76465 11 5.21236 11 5.76465V13.3504L13.2929 11.0575C13.6834 10.667 14.3166 10.667 14.7071 11.0575C15.0976 11.4481 15.0976 12.0812 14.7071 12.4718L10.7071 16.4718C10.3166 16.8623 9.68342 16.8623 9.29289 16.4718L5.29289 12.4718C4.90237 12.0812 4.90237 11.4481 5.29289 11.0575C5.68342 10.667 6.31658 10.667 6.70711 11.0575L9 13.3504V5.76465C9 5.21236 9.44771 4.76465 10 4.76465Z" fill="#231403"/>
</svg>
