<svg width="24" height="25" viewBox="0 0 24 25" fill="none" xmlns="http://www.w3.org/2000/svg">
<path d="M12 4.76465C7.58172 4.76465 4 8.34637 4 12.7646C4 17.1829 7.58172 20.7646 12 20.7646C16.4183 20.7646 20 17.1829 20 12.7646C20 8.34637 16.4183 4.76465 12 4.76465ZM2 12.7646C2 7.2418 6.47715 2.76465 12 2.76465C17.5228 2.76465 22 7.2418 22 12.7646C22 18.2875 17.5228 22.7646 12 22.7646C6.47715 22.7646 2 18.2875 2 12.7646Z" fill="#231403"/>
<path d="M12 14.7646C11.4477 14.7646 11 14.3169 11 13.7646V12.7646C11 12.2124 11.4477 11.7646 12 11.7646C12.5523 11.7646 13 12.2124 13 12.7646V13.7646C13 14.3169 12.5523 14.7646 12 14.7646Z" fill="#231403"/>
<path d="M10.5 17.2646C10.5 16.4362 11.1716 15.7646 12 15.7646C12.8284 15.7646 13.5 16.4362 13.5 17.2646C13.5 18.0931 12.8284 18.7646 12 18.7646C11.1716 18.7646 10.5 18.0931 10.5 17.2646Z" fill="#231403"/>
<path d="M12.3899 8.57602C11.4329 8.53045 10.6304 9.06505 10.4864 9.92905C10.3956 10.4738 9.88037 10.8418 9.3356 10.751C8.79083 10.6603 8.42281 10.145 8.51361 9.60025C8.86961 7.46425 10.8171 6.49886 12.4851 6.57828C13.3395 6.61897 14.2176 6.92564 14.8937 7.55743C15.5866 8.20492 16 9.13241 16 10.2646C16 11.556 15.4919 12.5136 14.6172 13.0967C13.8141 13.6321 12.8295 13.7646 12 13.7646C11.4477 13.7646 11 13.3169 11 12.7646C11 12.2124 11.4477 11.7646 12 11.7646C12.6705 11.7646 13.1859 11.6472 13.5078 11.4326C13.7581 11.2657 14 10.9733 14 10.2646C14 9.64688 13.7884 9.26188 13.5282 9.01874C13.2512 8.75991 12.848 8.59783 12.3899 8.57602Z" fill="#231403"/>
</svg>
