<svg width="20" height="21" viewBox="0 0 20 21" fill="none" xmlns="http://www.w3.org/2000/svg">
<path d="M10 2.76465C5.58172 2.76465 2 6.34637 2 10.7646C2 15.1829 5.58172 18.7646 10 18.7646C14.4183 18.7646 18 15.1829 18 10.7646C18 6.34637 14.4183 2.76465 10 2.76465ZM0 10.7646C0 5.2418 4.47715 0.764648 10 0.764648C15.5228 0.764648 20 5.2418 20 10.7646C20 16.2875 15.5228 20.7646 10 20.7646C4.47715 20.7646 0 16.2875 0 10.7646ZM9 8.17886L6.70711 10.4718C6.31658 10.8623 5.68342 10.8623 5.29289 10.4718C4.90237 10.0812 4.90237 9.44806 5.29289 9.05754L9.29289 5.05754C9.68342 4.66702 10.3166 4.66702 10.7071 5.05754L14.7071 9.05754C15.0976 9.44807 15.0976 10.0812 14.7071 10.4718C14.3166 10.8623 13.6834 10.8623 13.2929 10.4718L11 8.17886V15.7646C11 16.3169 10.5523 16.7646 10 16.7646C9.44771 16.7646 9 16.3169 9 15.7646V8.17886Z" fill="#231403"/>
</svg>
