<svg width="20" height="21" viewBox="0 0 20 21" fill="none" xmlns="http://www.w3.org/2000/svg">
<path d="M10 2.76465C5.58172 2.76465 2 6.34637 2 10.7646C2 15.1829 5.58172 18.7646 10 18.7646C14.4183 18.7646 18 15.1829 18 10.7646C18 6.34637 14.4183 2.76465 10 2.76465ZM0 10.7646C0 5.2418 4.47715 0.764648 10 0.764648C15.5228 0.764648 20 5.2418 20 10.7646C20 16.2875 15.5228 20.7646 10 20.7646C4.47715 20.7646 0 16.2875 0 10.7646Z" fill="#231403"/>
<path d="M10 12.7646C9.44771 12.7646 9 12.3169 9 11.7646L9 5.76465C9 5.21236 9.44772 4.76465 10 4.76465C10.5523 4.76465 11 5.21236 11 5.76465L11 11.7646C11 12.3169 10.5523 12.7646 10 12.7646Z" fill="#231403"/>
<path d="M8.5 15.2646C8.5 14.4362 9.17157 13.7646 10 13.7646C10.8284 13.7646 11.5 14.4362 11.5 15.2646C11.5 16.0931 10.8284 16.7646 10 16.7646C9.17157 16.7646 8.5 16.0931 8.5 15.2646Z" fill="#231403"/>
</svg>
