<svg width="20" height="21" viewBox="0 0 20 21" fill="none" xmlns="http://www.w3.org/2000/svg">
<path d="M10 2.76465C5.58172 2.76465 2 6.34637 2 10.7646C2 15.1829 5.58172 18.7646 10 18.7646C14.4183 18.7646 18 15.1829 18 10.7646C18 6.34637 14.4183 2.76465 10 2.76465ZM0 10.7646C0 5.2418 4.47715 0.764648 10 0.764648C15.5228 0.764648 20 5.2418 20 10.7646C20 16.2875 15.5228 20.7646 10 20.7646C4.47715 20.7646 0 16.2875 0 10.7646Z" fill="#231403"/>
<path d="M10 8.76465C10.5523 8.76465 11 9.21236 11 9.76465V15.7646C11 16.3169 10.5523 16.7646 10 16.7646C9.44771 16.7646 9 16.3169 9 15.7646V9.76465C9 9.21236 9.44771 8.76465 10 8.76465Z" fill="#231403"/>
<path d="M11.5 6.26465C11.5 7.09308 10.8284 7.76465 10 7.76465C9.17157 7.76465 8.5 7.09308 8.5 6.26465C8.5 5.43622 9.17157 4.76465 10 4.76465C10.8284 4.76465 11.5 5.43622 11.5 6.26465Z" fill="#231403"/>
</svg>
