<svg width="20" height="21" viewBox="0 0 20 21" fill="none" xmlns="http://www.w3.org/2000/svg">
<path d="M10 2.76465C5.58172 2.76465 2 6.34637 2 10.7646C2 15.1829 5.58172 18.7646 10 18.7646C14.4183 18.7646 18 15.1829 18 10.7646C18 6.34637 14.4183 2.76465 10 2.76465ZM0 10.7646C0 5.2418 4.47715 0.764648 10 0.764648C15.5228 0.764648 20 5.2418 20 10.7646C20 16.2875 15.5228 20.7646 10 20.7646C4.47715 20.7646 0 16.2875 0 10.7646ZM9.70711 6.05754C10.0976 6.44807 10.0976 7.08123 9.70711 7.47176L7.41421 9.76465H15C15.5523 9.76465 16 10.2124 16 10.7646C16 11.3169 15.5523 11.7646 15 11.7646H7.41421L9.70711 14.0575C10.0976 14.4481 10.0976 15.0812 9.70711 15.4718C9.31658 15.8623 8.68342 15.8623 8.29289 15.4718L4.29289 11.4718C3.90237 11.0812 3.90237 10.4481 4.29289 10.0575L8.29289 6.05754C8.68342 5.66702 9.31658 5.66702 9.70711 6.05754Z" fill="#231403"/>
</svg>
