<svg width="20" height="21" viewBox="0 0 20 21" fill="none" xmlns="http://www.w3.org/2000/svg">
<path d="M10 2.76465C5.58172 2.76465 2 6.34637 2 10.7646C2 15.1829 5.58172 18.7646 10 18.7646C14.4183 18.7646 18 15.1829 18 10.7646C18 6.34637 14.4183 2.76465 10 2.76465ZM0 10.7646C0 5.2418 4.47715 0.764648 10 0.764648C15.5228 0.764648 20 5.2418 20 10.7646C20 16.2875 15.5228 20.7646 10 20.7646C4.47715 20.7646 0 16.2875 0 10.7646ZM10 5.76465C10.5523 5.76465 11 6.21236 11 6.76465V9.76465H14C14.5523 9.76465 15 10.2124 15 10.7646C15 11.3169 14.5523 11.7646 14 11.7646H11V14.7646C11 15.3169 10.5523 15.7646 10 15.7646C9.44771 15.7646 9 15.3169 9 14.7646V11.7646H6C5.44772 11.7646 5 11.3169 5 10.7646C5 10.2124 5.44772 9.76465 6 9.76465H9V6.76465C9 6.21236 9.44771 5.76465 10 5.76465Z" fill="#231403"/>
</svg>
