<svg width="20" height="21" viewBox="0 0 20 21" fill="none" xmlns="http://www.w3.org/2000/svg">
<path d="M10 2.76465C5.58172 2.76465 2 6.34637 2 10.7646C2 15.1829 5.58172 18.7646 10 18.7646C14.4183 18.7646 18 15.1829 18 10.7646C18 6.34637 14.4183 2.76465 10 2.76465ZM0 10.7646C0 5.2418 4.47715 0.764648 10 0.764648C15.5228 0.764648 20 5.2418 20 10.7646C20 16.2875 15.5228 20.7646 10 20.7646C4.47715 20.7646 0 16.2875 0 10.7646ZM14.6644 7.51724C15.0771 7.88416 15.1143 8.51623 14.7474 8.92901L9.41408 14.929C9.22431 15.1425 8.9523 15.2646 8.66667 15.2646C8.38103 15.2646 8.10903 15.1425 7.91926 14.929L5.25259 11.929C4.88567 11.5162 4.92285 10.8842 5.33564 10.5172C5.74842 10.1503 6.38049 10.1875 6.74741 10.6003L8.66667 12.7594L13.2526 7.60028C13.6195 7.1875 14.2516 7.15032 14.6644 7.51724Z" fill="#231403"/>
</svg>
