<svg width="16" height="21" viewBox="0 0 16 21" fill="none" xmlns="http://www.w3.org/2000/svg">
<path d="M5 10.2646C5.55228 10.2646 6 9.81693 6 9.26465C6 8.71236 5.55228 8.26465 5 8.26465C4.44772 8.26465 4 8.71236 4 9.26465C4 9.81693 4.44772 10.2646 5 10.2646Z" fill="#231403"/>
<path d="M7 9.26465C7 8.71236 7.44772 8.26465 8 8.26465H11C11.5523 8.26465 12 8.71236 12 9.26465C12 9.81693 11.5523 10.2646 11 10.2646H8C7.44772 10.2646 7 9.81693 7 9.26465Z" fill="#231403"/>
<path d="M8 11.2646C7.44772 11.2646 7 11.7124 7 12.2646C7 12.8169 7.44772 13.2646 8 13.2646H11C11.5523 13.2646 12 12.8169 12 12.2646C12 11.7124 11.5523 11.2646 11 11.2646H8Z" fill="#231403"/>
<path d="M8 14.2646C7.44772 14.2646 7 14.7124 7 15.2646C7 15.8169 7.44772 16.2646 8 16.2646H11C11.5523 16.2646 12 15.8169 12 15.2646C12 14.7124 11.5523 14.2646 11 14.2646H8Z" fill="#231403"/>
<path d="M6 12.2646C6 12.8169 5.55228 13.2646 5 13.2646C4.44772 13.2646 4 12.8169 4 12.2646C4 11.7124 4.44772 11.2646 5 11.2646C5.55228 11.2646 6 11.7124 6 12.2646Z" fill="#231403"/>
<path d="M5 16.2646C5.55228 16.2646 6 15.8169 6 15.2646C6 14.7124 5.55228 14.2646 5 14.2646C4.44772 14.2646 4 14.7124 4 15.2646C4 15.8169 4.44772 16.2646 5 16.2646Z" fill="#231403"/>
<path d="M5 0.764648C4.44772 0.764648 4 1.21236 4 1.76465H2C0.895431 1.76465 0 2.66008 0 3.76465V18.7646C0 19.8692 0.895431 20.7646 2 20.7646H14C15.1046 20.7646 16 19.8692 16 18.7646V3.76465C16 2.66008 15.1046 1.76465 14 1.76465H12C12 1.21236 11.5523 0.764648 11 0.764648H5ZM12 3.76465H14V18.7646H2V3.76465H4V4.76465C4 5.31693 4.44772 5.76465 5 5.76465H11C11.5523 5.76465 12 5.31693 12 4.76465V3.76465ZM6 3.76465V2.76465H10V3.76465H6Z" fill="#231403"/>
</svg>
