<svg width="16" height="21" viewBox="0 0 16 21" fill="none" xmlns="http://www.w3.org/2000/svg">
<path d="M4 1.76465C4 1.21236 4.44772 0.764648 5 0.764648H11C11.5523 0.764648 12 1.21236 12 1.76465H14C15.1046 1.76465 16 2.66008 16 3.76465V18.7646C16 19.8692 15.1046 20.7646 14 20.7646H2C0.895431 20.7646 0 19.8692 0 18.7646V3.76465C0 2.66008 0.895431 1.76465 2 1.76465H4ZM4 3.76465H2V18.7646H14V3.76465H12V4.76465C12 5.31693 11.5523 5.76465 11 5.76465H5C4.44772 5.76465 4 5.31693 4 4.76465V3.76465ZM10 2.76465H6V3.76465H10V2.76465ZM11.7071 9.55754C12.0976 9.94807 12.0976 10.5812 11.7071 10.9718L7.70711 14.9718C7.31658 15.3623 6.68342 15.3623 6.29289 14.9718L4.29289 12.9718C3.90237 12.5812 3.90237 11.9481 4.29289 11.5575C4.68342 11.167 5.31658 11.167 5.70711 11.5575L7 12.8504L10.2929 9.55754C10.6834 9.16702 11.3166 9.16702 11.7071 9.55754Z" fill="#231403"/>
</svg>
