<svg width="20" height="21" viewBox="0 0 20 21" fill="none" xmlns="http://www.w3.org/2000/svg">
<path d="M10 2.76465C5.58172 2.76465 2 6.34637 2 10.7646C2 15.1829 5.58172 18.7646 10 18.7646C14.4183 18.7646 18 15.1829 18 10.7646C18 6.34637 14.4183 2.76465 10 2.76465ZM0 10.7646C0 5.2418 4.47715 0.764648 10 0.764648C15.5228 0.764648 20 5.2418 20 10.7646C20 16.2875 15.5228 20.7646 10 20.7646C4.47715 20.7646 0 16.2875 0 10.7646ZM10 4.76465C10.5523 4.76465 11 5.21236 11 5.76465V10.3504L13.7071 13.0575C14.0976 13.4481 14.0976 14.0812 13.7071 14.4718C13.3166 14.8623 12.6834 14.8623 12.2929 14.4718L9.29289 11.4718C9.10536 11.2842 9 11.0299 9 10.7646V5.76465C9 5.21236 9.44771 4.76465 10 4.76465Z" fill="#231403"/>
</svg>
