<svg width="14" height="15" viewBox="0 0 14 15" fill="none" xmlns="http://www.w3.org/2000/svg">
<path d="M0.292893 1.05754C0.683417 0.667017 1.31658 0.667017 1.70711 1.05754L7 6.35044L12.2929 1.05754C12.6834 0.667017 13.3166 0.667017 13.7071 1.05754C14.0976 1.44807 14.0976 2.08123 13.7071 2.47176L8.41421 7.76465L13.7071 13.0575C14.0976 13.4481 14.0976 14.0812 13.7071 14.4718C13.3166 14.8623 12.6834 14.8623 12.2929 14.4718L7 9.17886L1.70711 14.4718C1.31658 14.8623 0.683417 14.8623 0.292893 14.4718C-0.0976311 14.0812 -0.0976311 13.4481 0.292893 13.0575L5.58579 7.76465L0.292893 2.47176C-0.0976311 2.08123 -0.0976311 1.44807 0.292893 1.05754Z" fill="#231403"/>
</svg>
