<svg width="24" height="25" viewBox="0 0 24 25" fill="none" xmlns="http://www.w3.org/2000/svg">
<path d="M5 10.7646C5 7.45094 7.68629 4.76465 11 4.76465C13.627 4.76465 15.858 6.4521 16.6713 8.80178C19.669 9.1355 22 11.6779 22 14.7646C22 18.0784 19.3137 20.7646 16 20.7646H7C4.23858 20.7646 2 18.5261 2 15.7646C2 13.7082 3.24073 11.9433 5.01385 11.175C5.00466 11.0393 5 10.9025 5 10.7646ZM11 6.76465C8.79086 6.76465 7 8.55551 7 10.7646C7 11.0675 7.03348 11.3614 7.09656 11.6432C7.21716 12.1819 6.8783 12.7165 6.33958 12.8374C5.00015 13.1378 4 14.3356 4 15.7646C4 17.4215 5.34315 18.7646 7 18.7646H16C18.2091 18.7646 20 16.9738 20 14.7646C20 12.5555 18.2091 10.7646 16 10.7646C15.9732 10.7646 15.9465 10.7649 15.9198 10.7654C15.4368 10.7749 15.0161 10.4378 14.9201 9.96436C14.5499 8.1386 12.9343 6.76465 11 6.76465Z" fill="#231403"/>
</svg>
