<svg width="24" height="25" viewBox="0 0 24 25" fill="none" xmlns="http://www.w3.org/2000/svg">
<path d="M16 5.76465C17.6569 5.76465 19 7.10779 19 8.76465C19 9.34039 18.8378 9.87826 18.5566 10.335C17.9735 10.06 17.3389 9.87611 16.6713 9.80178C16.1931 8.42016 15.2247 7.2675 13.9738 6.55224C14.5076 6.06312 15.219 5.76465 16 5.76465ZM11.9451 5.83864C11.6373 5.78994 11.3216 5.76465 11 5.76465C7.68629 5.76465 5 8.45094 5 11.7646C5 11.9025 5.00466 12.0393 5.01385 12.175C3.24073 12.9433 2 14.7082 2 16.7646C2 19.5261 4.23858 21.7646 7 21.7646H16C19.3137 21.7646 22 19.0784 22 15.7646C22 14.086 21.3106 12.5683 20.1996 11.4794C20.706 10.6976 21 9.76545 21 8.76465C21 6.00322 18.7614 3.76465 16 3.76465C14.3312 3.76465 12.8533 4.5822 11.9451 5.83864ZM7 11.7646C7 9.55551 8.79086 7.76465 11 7.76465C12.9343 7.76465 14.5499 9.1386 14.9201 10.9644C15.0161 11.4378 15.4368 11.7749 15.9198 11.7654C15.9465 11.7649 15.9732 11.7646 16 11.7646C18.2091 11.7646 20 13.5555 20 15.7646C20 17.9738 18.2091 19.7646 16 19.7646H7C5.34315 19.7646 4 18.4215 4 16.7646C4 15.3356 5.00015 14.1378 6.33958 13.8374C6.8783 13.7165 7.21716 13.1819 7.09656 12.6432C7.03348 12.3614 7 12.0675 7 11.7646Z" fill="#231403"/>
</svg>
