<svg width="24" height="25" viewBox="0 0 24 25" fill="none" xmlns="http://www.w3.org/2000/svg">
<path d="M2 5.76465C2 4.66008 2.89543 3.76465 4 3.76465H20C21.1046 3.76465 22 4.66008 22 5.76465V16.7646C22 17.8692 21.1046 18.7646 20 18.7646H13V20.7646H16C16.5523 20.7646 17 21.2124 17 21.7646C17 22.3169 16.5523 22.7646 16 22.7646H8C7.44772 22.7646 7 22.3169 7 21.7646C7 21.2124 7.44772 20.7646 8 20.7646H11V18.7646H4C2.89543 18.7646 2 17.8692 2 16.7646V5.76465ZM20 16.7646V5.76465H4V16.7646H20Z" fill="#231403"/>
</svg>
