<svg width="20" height="21" viewBox="0 0 20 21" fill="none" xmlns="http://www.w3.org/2000/svg">
<path d="M5 2.76465C5 1.66008 5.89543 0.764648 7 0.764648H13C14.1046 0.764648 15 1.66008 15 2.76465V4.76465H16.9897C16.9959 4.76459 17.0021 4.76459 17.0083 4.76465H19C19.5523 4.76465 20 5.21236 20 5.76465C20 6.31693 19.5523 6.76465 19 6.76465H17.9311L17.0638 18.9071C16.989 19.9538 16.1182 20.7646 15.0689 20.7646H4.93112C3.88184 20.7646 3.01096 19.9538 2.9362 18.9071L2.06888 6.76465H1C0.447715 6.76465 0 6.31693 0 5.76465C0 5.21236 0.447715 4.76465 1 4.76465H2.99174C2.99795 4.76459 3.00414 4.76459 3.01032 4.76465H5V2.76465ZM7 4.76465H13V2.76465H7V4.76465ZM4.07398 6.76465L4.93112 18.7646H15.0689L15.926 6.76465H4.07398Z" fill="#231403"/>
</svg>
