<svg width="16" height="21" viewBox="0 0 16 21" fill="none" xmlns="http://www.w3.org/2000/svg">
<path d="M0 2.76465C0 1.66008 0.89543 0.764648 2 0.764648H10C10.2652 0.764648 10.5196 0.870005 10.7071 1.05754L15.7071 6.05754C15.8946 6.24508 16 6.49943 16 6.76465V18.7646C16 19.8692 15.1046 20.7646 14 20.7646H2C0.895432 20.7646 0 19.8692 0 18.7646V2.76465ZM13.5858 6.76465L10 3.17886V6.76465H13.5858ZM8 2.76465L2 2.76465V18.7646H14V8.76465H9C8.44772 8.76465 8 8.31693 8 7.76465V2.76465ZM8 10.7646C8.55228 10.7646 9 11.2124 9 11.7646V12.7646H10C10.5523 12.7646 11 13.2124 11 13.7646C11 14.3169 10.5523 14.7646 10 14.7646H9V15.7646C9 16.3169 8.55228 16.7646 8 16.7646C7.44772 16.7646 7 16.3169 7 15.7646V14.7646H6C5.44772 14.7646 5 14.3169 5 13.7646C5 13.2124 5.44772 12.7646 6 12.7646H7V11.7646C7 11.2124 7.44772 10.7646 8 10.7646Z" fill="#231403"/>
</svg>
