<svg width="16" height="21" viewBox="0 0 16 21" fill="none" xmlns="http://www.w3.org/2000/svg">
<path d="M0 2.76465C0 1.66008 0.89543 0.764648 2 0.764648H10C10.2652 0.764648 10.5196 0.870005 10.7071 1.05754L15.7071 6.05754C15.8946 6.24508 16 6.49943 16 6.76465V18.7646C16 19.8692 15.1046 20.7646 14 20.7646H2C0.895432 20.7646 0 19.8692 0 18.7646V2.76465ZM13.5858 6.76465L10 3.17886V6.76465H13.5858ZM8 2.76465L2 2.76465V18.7646H14V8.76465H9C8.44772 8.76465 8 8.31693 8 7.76465V2.76465ZM4 11.7646C4 11.2124 4.44772 10.7646 5 10.7646H11C11.5523 10.7646 12 11.2124 12 11.7646C12 12.3169 11.5523 12.7646 11 12.7646H5C4.44772 12.7646 4 12.3169 4 11.7646ZM4 15.7646C4 15.2124 4.44772 14.7646 5 14.7646H11C11.5523 14.7646 12 15.2124 12 15.7646C12 16.3169 11.5523 16.7646 11 16.7646H5C4.44772 16.7646 4 16.3169 4 15.7646Z" fill="#231403"/>
</svg>
