<svg width="16" height="21" viewBox="0 0 16 21" fill="none" xmlns="http://www.w3.org/2000/svg">
<path d="M0 2.76465C0 1.66008 0.89543 0.764648 2 0.764648H10C10.2652 0.764648 10.5196 0.870005 10.7071 1.05754L15.7071 6.05754C15.8946 6.24508 16 6.49943 16 6.76465V18.7646C16 19.8692 15.1046 20.7646 14 20.7646H2C0.895432 20.7646 0 19.8692 0 18.7646V2.76465ZM13.5858 6.76465L10 3.17886V6.76465H13.5858ZM8 2.76465L2 2.76465V18.7646H14V8.76465H9C8.44772 8.76465 8 8.31693 8 7.76465V2.76465Z" fill="#231403"/>
</svg>
