<svg width="16" height="21" viewBox="0 0 16 21" fill="none" xmlns="http://www.w3.org/2000/svg">
<path d="M0 2.76465C0 1.66008 0.89543 0.764648 2 0.764648H10C10.2652 0.764648 10.5196 0.870005 10.7071 1.05754L15.7071 6.05754C15.8946 6.24508 16 6.49943 16 6.76465V18.7646C16 19.8692 15.1046 20.7646 14 20.7646H2C0.895432 20.7646 0 19.8692 0 18.7646V2.76465ZM13.5858 6.76465L10 3.17886V6.76465H13.5858ZM8 2.76465L2 2.76465V18.7646H14V8.76465H9C8.44772 8.76465 8 8.31693 8 7.76465V2.76465ZM11.7071 11.0575C12.0976 11.4481 12.0976 12.0812 11.7071 12.4718L7.70711 16.4718C7.31658 16.8623 6.68342 16.8623 6.29289 16.4718L4.29289 14.4718C3.90237 14.0812 3.90237 13.4481 4.29289 13.0575C4.68342 12.667 5.31658 12.667 5.70711 13.0575L7 14.3504L10.2929 11.0575C10.6834 10.667 11.3166 10.667 11.7071 11.0575Z" fill="#231403"/>
</svg>
