<svg width="17" height="21" viewBox="0 0 17 21" fill="none" xmlns="http://www.w3.org/2000/svg">
<path d="M8.20711 1.05754C8.59763 1.44807 8.59763 2.08123 8.20711 2.47176L6.91421 3.76465H8.5C13.1523 3.76465 17 7.61236 17 12.2646C17 16.9169 13.1523 20.7646 8.5 20.7646C3.84772 20.7646 0 16.9169 0 12.2646C0 11.7124 0.447715 11.2646 1 11.2646C1.55228 11.2646 2 11.7124 2 12.2646C2 15.8124 4.95228 18.7646 8.5 18.7646C12.0477 18.7646 15 15.8124 15 12.2646C15 8.71693 12.0477 5.76465 8.5 5.76465H6.91421L8.20711 7.05754C8.59763 7.44807 8.59763 8.08123 8.20711 8.47176C7.81658 8.86228 7.18342 8.86228 6.79289 8.47176L3.79289 5.47176C3.40237 5.08123 3.40237 4.44807 3.79289 4.05754L6.79289 1.05754C7.18342 0.667017 7.81658 0.667017 8.20711 1.05754Z" fill="#231403"/>
</svg>
