<svg width="24" height="25" viewBox="0 0 24 25" fill="none" xmlns="http://www.w3.org/2000/svg">
<path d="M12.6508 3.00547C12.2763 2.68448 11.7233 2.68481 11.3488 3.0058L11.2604 3.08297C11.2055 3.13128 11.1266 3.20154 11.0269 3.29202C10.8277 3.47293 10.5454 3.7351 10.2077 4.06478C9.5335 4.72294 8.63218 5.65618 7.72807 6.75402C6.8264 7.8489 5.90543 9.12737 5.206 10.4763C4.51106 11.8165 4 13.2926 4 14.7647C4 19.183 7.58172 22.7647 12 22.7647C16.4183 22.7647 20 19.183 20 14.7647C20 13.2926 19.4889 11.8165 18.794 10.4763C18.0946 9.12737 17.1736 7.8489 16.2719 6.75402C15.3678 5.65618 14.4665 4.72294 13.7923 4.06478C13.4546 3.7351 13.1723 3.47293 12.9731 3.29202L12.6508 3.00547ZM6 14.7647C6 13.7369 6.36394 12.5879 6.9815 11.3969C7.59457 10.2146 8.4236 9.05555 9.27193 8.02543C10.1178 6.99828 10.9665 6.11901 11.6048 5.49593C11.7483 5.35583 11.8809 5.22899 12 5.11665C12.1191 5.22899 12.2517 5.35583 12.3952 5.49593C13.0335 6.11901 13.8822 6.99828 14.7281 8.02543C15.5764 9.05555 16.4054 10.2146 17.0185 11.3969C17.6361 12.5879 18 13.7369 18 14.7647C18 18.0784 15.3137 20.7647 12 20.7647C8.68629 20.7647 6 18.0784 6 14.7647Z" fill="#231403"/>
<path d="M8.35964 14.8063C7.8303 14.9638 7.52889 15.5207 7.68643 16.05C8.11874 17.5026 9.26213 18.646 10.7147 19.0783C11.244 19.2358 11.8009 18.9344 11.9584 18.4051C12.1159 17.8757 11.8145 17.3189 11.2852 17.1614C10.48 16.9217 9.84298 16.2847 9.60334 15.4795C9.4458 14.9502 8.88897 14.6488 8.35964 14.8063Z" fill="#231403"/>
</svg>
