<svg width="18" height="19" viewBox="0 0 18 19" fill="none" xmlns="http://www.w3.org/2000/svg">
<path d="M13.2929 1.05754C13.6834 0.667017 14.3166 0.667017 14.7071 1.05754L17.7071 4.05754C18.0976 4.44807 18.0976 5.08123 17.7071 5.47176L8.70711 14.4718C8.51957 14.6593 8.26522 14.7646 8 14.7646H5C4.44772 14.7646 4 14.3169 4 13.7646V10.7646C4 10.4994 4.10536 10.2451 4.29289 10.0575L13.2929 1.05754ZM6 11.1789V12.7646H7.58579L15.5858 4.76465L14 3.17886L6 11.1789ZM0 4.76465C0 3.66008 0.895431 2.76465 2 2.76465H7C7.55228 2.76465 8 3.21236 8 3.76465C8 4.31693 7.55228 4.76465 7 4.76465H2V16.7646H14V11.7646C14 11.2124 14.4477 10.7646 15 10.7646C15.5523 10.7646 16 11.2124 16 11.7646V16.7646C16 17.8692 15.1046 18.7646 14 18.7646H2C0.895431 18.7646 0 17.8692 0 16.7646V4.76465Z" fill="#231403"/>
</svg>
