<svg width="19" height="20" viewBox="0 0 19 20" fill="none" xmlns="http://www.w3.org/2000/svg">
<path d="M13.2929 1.05754C13.6834 0.667017 14.3166 0.667017 14.7071 1.05754L18.7071 5.05754C19.0976 5.44807 19.0976 6.08123 18.7071 6.47176L5.70711 19.4718C5.51957 19.6593 5.26522 19.7646 5 19.7646H1C0.447715 19.7646 0 19.3169 0 18.7646V14.7646C0 14.4994 0.105357 14.2451 0.292893 14.0575L10.2927 4.05775L13.2929 1.05754ZM11 6.17886L2 15.1789V17.7646H4.58579L13.5858 8.76465L11 6.17886ZM15 7.35043L16.5858 5.76465L14 3.17886L12.4142 4.76465L15 7.35043Z" fill="#231403"/>
</svg>
