<svg width="16" height="21" viewBox="0 0 16 21" fill="none" xmlns="http://www.w3.org/2000/svg">
<path d="M8 0.764648C8.55228 0.764648 9 1.21236 9 1.76465V12.3504L11.2929 10.0575C11.6834 9.66702 12.3166 9.66702 12.7071 10.0575C13.0976 10.4481 13.0976 11.0812 12.7071 11.4718L8.70711 15.4718C8.31658 15.8623 7.68342 15.8623 7.29289 15.4718L3.29289 11.4718C2.90237 11.0812 2.90237 10.4481 3.29289 10.0575C3.68342 9.66702 4.31658 9.66702 4.70711 10.0575L7 12.3504V1.76465C7 1.21236 7.44772 0.764648 8 0.764648ZM1 15.7646C1.55228 15.7646 2 16.2124 2 16.7646V18.7646H14V16.7646C14 16.2124 14.4477 15.7646 15 15.7646C15.5523 15.7646 16 16.2124 16 16.7646V18.7646C16 19.8692 15.1046 20.7646 14 20.7646H2C0.895431 20.7646 0 19.8692 0 18.7646V16.7646C0 16.2124 0.447715 15.7646 1 15.7646Z" fill="#231403"/>
</svg>
