<svg width="20" height="20" viewBox="0 0 20 20" fill="none" xmlns="http://www.w3.org/2000/svg">
<path d="M10 0.264648C10.3788 0.264648 10.7251 0.478651 10.8945 0.817435L13.4734 5.97525L19.144 6.80006C19.5206 6.85485 19.8335 7.11867 19.9511 7.48064C20.0687 7.84261 19.9706 8.23996 19.6981 8.50565L15.571 12.5296L16.4994 18.2032C16.5608 18.5781 16.4043 18.9555 16.0957 19.177C15.787 19.3986 15.3794 19.4261 15.0438 19.248L10 16.5717L4.95624 19.248C4.62062 19.4261 4.21306 19.3986 3.9044 19.177C3.59573 18.9555 3.4393 18.5781 3.50065 18.2032L4.42906 12.5296L0.301929 8.50565C0.0294234 8.23996 -0.068637 7.84261 0.0489696 7.48064C0.166576 7.11867 0.479458 6.85485 0.856089 6.80006L6.5267 5.97525L9.1056 0.817435C9.27499 0.478651 9.62126 0.264648 10 0.264648ZM10 3.50072L8.08196 7.33686C7.93561 7.62956 7.65531 7.83213 7.33147 7.87923L3.14842 8.48768L6.19813 11.4611C6.43182 11.689 6.53961 12.0165 6.4869 12.3386L5.80004 16.5362L9.53131 14.5563C9.82444 14.4008 10.1756 14.4008 10.4687 14.5563L14.2 16.5362L13.5132 12.3386C13.4604 12.0165 13.5682 11.689 13.8019 11.4611L16.8516 8.48768L12.6686 7.87923C12.3448 7.83213 12.0645 7.62956 11.9181 7.33686L10 3.50072Z" fill="#231403"/>
</svg>
