<svg width="24" height="25" viewBox="0 0 24 25" fill="none" xmlns="http://www.w3.org/2000/svg">
<path d="M11 6.76465C11 6.21236 11.4477 5.76465 12 5.76465H21C21.5523 5.76465 22 6.21236 22 6.76465C22 7.31693 21.5523 7.76465 21 7.76465H12C11.4477 7.76465 11 7.31693 11 6.76465ZM2 10.7646C2 10.2124 2.44772 9.76465 3 9.76465H14C14.5523 9.76465 15 10.2124 15 10.7646C15 11.3169 14.5523 11.7646 14 11.7646H3C2.44772 11.7646 2 11.3169 2 10.7646ZM5 13.7646C4.44772 13.7646 4 14.2124 4 14.7646C4 15.3169 4.44772 15.7646 5 15.7646H14C14.5523 15.7646 15 15.3169 15 14.7646C15 14.2124 14.5523 13.7646 14 13.7646H5ZM17 13.7646C16.4477 13.7646 16 14.2124 16 14.7646C16 15.3169 16.4477 15.7646 17 15.7646H21C21.5523 15.7646 22 15.3169 22 14.7646C22 14.2124 21.5523 13.7646 21 13.7646H17ZM17 9.76465C16.4477 9.76465 16 10.2124 16 10.7646C16 11.3169 16.4477 11.7646 17 11.7646H19C19.5523 11.7646 20 11.3169 20 10.7646C20 10.2124 19.5523 9.76465 19 9.76465H17ZM7 18.7646C7 18.2124 7.44772 17.7646 8 17.7646H19C19.5523 17.7646 20 18.2124 20 18.7646C20 19.3169 19.5523 19.7646 19 19.7646H8C7.44772 19.7646 7 19.3169 7 18.7646ZM3 17.7646C2.44772 17.7646 2 18.2124 2 18.7646C2 19.3169 2.44772 19.7646 3 19.7646H5C5.55228 19.7646 6 19.3169 6 18.7646C6 18.2124 5.55228 17.7646 5 17.7646H3ZM5 5.76465C4.44772 5.76465 4 6.21236 4 6.76465C4 7.31693 4.44772 7.76465 5 7.76465H9C9.55228 7.76465 10 7.31693 10 6.76465C10 6.21236 9.55228 5.76465 9 5.76465H5Z" fill="#231403"/>
</svg>
