<svg width="20" height="17" viewBox="0 0 20 17" fill="none" xmlns="http://www.w3.org/2000/svg">
<path d="M0 2.76465C0 1.66008 0.89543 0.764648 2 0.764648H7C7.26522 0.764648 7.51957 0.870005 7.70711 1.05754L9.41421 2.76465H18C19.1046 2.76465 20 3.66008 20 4.76465V14.7646C20 15.8692 19.1046 16.7646 18 16.7646H2C0.895432 16.7646 0 15.8692 0 14.7646V2.76465ZM6.58579 2.76465L2 2.76465V14.7646H18V4.76465H9C8.73478 4.76465 8.48043 4.65929 8.29289 4.47176L6.58579 2.76465ZM10 6.26465C10.5523 6.26465 11 6.71236 11 7.26465V9.85044L11.2929 9.55754C11.6834 9.16702 12.3166 9.16702 12.7071 9.55754C13.0976 9.94807 13.0976 10.5812 12.7071 10.9718L10.7071 12.9718C10.3166 13.3623 9.68342 13.3623 9.29289 12.9718L7.29289 10.9718C6.90237 10.5812 6.90237 9.94807 7.29289 9.55754C7.68342 9.16702 8.31658 9.16702 8.70711 9.55754L9 9.85044V7.26465C9 6.71236 9.44772 6.26465 10 6.26465Z" fill="#231403"/>
</svg>
