<svg width="20" height="17" viewBox="0 0 20 17" fill="none" xmlns="http://www.w3.org/2000/svg">
<path d="M0 2.76465C0 1.66008 0.89543 0.764648 2 0.764648H7C7.26522 0.764648 7.51957 0.870005 7.70711 1.05754L9.41421 2.76465H18C19.1046 2.76465 20 3.66008 20 4.76465V14.7646C20 15.8692 19.1046 16.7646 18 16.7646H2C0.895432 16.7646 0 15.8692 0 14.7646V2.76465ZM6.58579 2.76465L2 2.76465V14.7646H18V4.76465H9C8.73478 4.76465 8.48043 4.65929 8.29289 4.47176L6.58579 2.76465ZM7 9.76465C7 9.21236 7.44772 8.76465 8 8.76465H12C12.5523 8.76465 13 9.21236 13 9.76465C13 10.3169 12.5523 10.7646 12 10.7646H8C7.44772 10.7646 7 10.3169 7 9.76465Z" fill="#231403"/>
</svg>
