<svg width="24" height="25" viewBox="0 0 24 25" fill="none" xmlns="http://www.w3.org/2000/svg">
<path d="M3 5.76465C3 4.66008 3.89543 3.76465 5 3.76465H9C10.1046 3.76465 11 4.66008 11 5.76465V9.76465C11 10.8692 10.1046 11.7646 9 11.7646H5C3.89543 11.7646 3 10.8692 3 9.76465V5.76465ZM9 5.76465H5V9.76465H9V5.76465ZM13 5.76465C13 4.66008 13.8954 3.76465 15 3.76465H19C20.1046 3.76465 21 4.66008 21 5.76465V9.76465C21 10.8692 20.1046 11.7646 19 11.7646H15C13.8954 11.7646 13 10.8692 13 9.76465V5.76465ZM19 5.76465H15V9.76465H19V5.76465ZM3 15.7646C3 14.6601 3.89543 13.7646 5 13.7646H9C10.1046 13.7646 11 14.6601 11 15.7646V19.7646C11 20.8692 10.1046 21.7646 9 21.7646H5C3.89543 21.7646 3 20.8692 3 19.7646V15.7646ZM9 15.7646H5V19.7646H9V15.7646ZM13 15.7646C13 14.6601 13.8954 13.7646 15 13.7646H19C20.1046 13.7646 21 14.6601 21 15.7646V19.7646C21 20.8692 20.1046 21.7646 19 21.7646H15C13.8954 21.7646 13 20.8692 13 19.7646V15.7646ZM19 15.7646H15V19.7646H19V15.7646Z" fill="#231403"/>
</svg>
