<svg width="20" height="19" viewBox="0 0 20 19" fill="none" xmlns="http://www.w3.org/2000/svg">
<path d="M10 2.29229C7.64418 0.181542 4.02125 0.258114 1.75736 2.52201C-0.585786 4.86515 -0.585786 8.66414 1.75736 11.0073L8.58579 17.8357C9.36684 18.6168 10.6332 18.6168 11.4142 17.8357L18.2426 11.0073C20.5858 8.66414 20.5858 4.86515 18.2426 2.52201C15.9787 0.258114 12.3558 0.181542 10 2.29229ZM8.82843 3.93622L9.29289 4.40069C9.68342 4.79121 10.3166 4.79121 10.7071 4.40069L11.1716 3.93622C12.7337 2.37412 15.2663 2.37412 16.8284 3.93622C18.3905 5.49832 18.3905 8.03098 16.8284 9.59308L10 16.4215L3.17157 9.59308C1.60948 8.03098 1.60948 5.49832 3.17157 3.93622C4.73367 2.37412 7.26633 2.37412 8.82843 3.93622Z" fill="#231403"/>
</svg>
