<svg width="20" height="20" viewBox="0 0 20 20" fill="none" xmlns="http://www.w3.org/2000/svg">
<path d="M9.33565 1.01724C9.71453 0.680452 10.2855 0.680452 10.6644 1.01724L19.6644 9.01724C20.0772 9.38416 20.1143 10.0162 19.7474 10.429C19.3805 10.8418 18.7484 10.879 18.3356 10.5121L18 10.2137V17.7646C18 18.8692 17.1046 19.7646 16 19.7646H4.00001C2.89544 19.7646 2.00001 18.8692 2.00001 17.7646V10.2137L1.66437 10.5121C1.25159 10.879 0.619519 10.8418 0.252601 10.429C-0.114317 10.0162 -0.0771359 9.38416 0.335647 9.01724L9.33565 1.01724ZM4.00001 8.43594V17.7646H7.00001V12.7646C7.00001 12.2124 7.44773 11.7646 8.00001 11.7646H12C12.5523 11.7646 13 12.2124 13 12.7646V17.7646H16V8.43594L10 3.1026L4.00001 8.43594ZM11 17.7646V13.7646H9.00001V17.7646H11Z" fill="#231403"/>
</svg>
