<svg width="18" height="19" viewBox="0 0 18 19" fill="none" xmlns="http://www.w3.org/2000/svg">
<path d="M12.5 7.76465C13.3284 7.76465 14 7.09308 14 6.26465C14 5.43622 13.3284 4.76465 12.5 4.76465C11.6716 4.76465 11 5.43622 11 6.26465C11 7.09308 11.6716 7.76465 12.5 7.76465Z" fill="#231403"/>
<path d="M0 2.76465C0 1.66008 0.895431 0.764648 2 0.764648H16C17.1046 0.764648 18 1.66008 18 2.76465V16.7646C18 17.8692 17.1046 18.7646 16 18.7646H2C0.895431 18.7646 0 17.8692 0 16.7646V2.76465ZM16 2.76465H2V10.6841L5.37534 7.98378C5.74056 7.6916 6.25951 7.6916 6.62473 7.98378L10.9258 11.4247L12.2929 10.0575C12.6835 9.66702 13.3166 9.66702 13.7071 10.0575L16 12.3504V2.76465ZM2 16.7646H16V15.1788L13 12.1789L11.7071 13.4718C11.3468 13.8321 10.7732 13.8638 10.3753 13.5455L6.00004 10.0453L2 13.2453V16.7646Z" fill="#231403"/>
</svg>
