<svg width="24" height="25" viewBox="0 0 24 25" fill="none" xmlns="http://www.w3.org/2000/svg">
<path d="M12 15.9146C14.0711 15.9146 15.75 14.2356 15.75 12.1646C15.75 10.0935 14.0711 8.41455 12 8.41455C9.92893 8.41455 8.25 10.0935 8.25 12.1646C8.25 14.2356 9.92893 15.9146 12 15.9146Z" stroke="#231403" stroke-width="2" stroke-miterlimit="10"/>
<path d="M16.125 3.53955H7.875C5.38972 3.53955 3.375 5.55427 3.375 8.03955V16.2896C3.375 18.7748 5.38972 20.7896 7.875 20.7896H16.125C18.6103 20.7896 20.625 18.7748 20.625 16.2896V8.03955C20.625 5.55427 18.6103 3.53955 16.125 3.53955Z" stroke="#231403" stroke-width="2" stroke-linecap="round" stroke-linejoin="round"/>
<path d="M16.875 8.41455C17.4963 8.41455 18 7.91087 18 7.28955C18 6.66823 17.4963 6.16455 16.875 6.16455C16.2537 6.16455 15.75 6.66823 15.75 7.28955C15.75 7.91087 16.2537 8.41455 16.875 8.41455Z" fill="#231403"/>
</svg>
