<svg width="24" height="25" viewBox="0 0 24 25" fill="none" xmlns="http://www.w3.org/2000/svg">
<path d="M14.0215 4.76465H19C19.5523 4.76465 20 5.21236 20 5.76465C20 6.31693 19.5523 6.76465 19 6.76465H14.7543L11.3257 18.7646H15C15.5523 18.7646 16 19.2124 16 19.7646C16 20.3169 15.5523 20.7646 15 20.7646H10.0237C10.0083 20.765 9.99281 20.765 9.9773 20.7646H5C4.44772 20.7646 4 20.3169 4 19.7646C4 19.2124 4.44772 18.7646 5 18.7646H9.2457L12.6743 6.76465H9C8.44772 6.76465 8 6.31693 8 5.76465C8 5.21236 8.44772 4.76465 9 4.76465H13.9775C13.9921 4.76432 14.0068 4.76432 14.0215 4.76465Z" fill="#231403"/>
</svg>
