<svg width="24" height="25" viewBox="0 0 24 25" fill="none" xmlns="http://www.w3.org/2000/svg">
<path d="M2 5.76465C2 4.66008 2.89543 3.76465 4 3.76465H20C21.1046 3.76465 22 4.66008 22 5.76465V16.7646C22 17.8692 21.1046 18.7646 20 18.7646H4C2.89543 18.7646 2 17.8692 2 16.7646V5.76465ZM20 5.76465H4V16.7646H20V5.76465Z" fill="#231403"/>
<path d="M22 20.7646C22 21.3169 21.5523 21.7646 21 21.7646H3C2.44772 21.7646 2 21.3169 2 20.7646C2 20.2124 2.44772 19.7646 3 19.7646L21 19.7646C21.5523 19.7646 22 20.2124 22 20.7646Z" fill="#231403"/>
</svg>
