<svg width="24" height="25" viewBox="0 0 24 25" fill="none" xmlns="http://www.w3.org/2000/svg">
<path d="M11.5145 2.89049C11.8166 2.7227 12.1838 2.7227 12.4858 2.89049L21.4858 7.89049C21.8033 8.06686 22.0002 8.40148 22.0002 8.76465C22.0002 9.12782 21.8033 9.46244 21.4858 9.63881L12.4858 14.6388C12.1838 14.8066 11.8166 14.8066 11.5145 14.6388L2.51454 9.63881C2.19707 9.46244 2.00018 9.12782 2.00018 8.76465C2.00018 8.40148 2.19707 8.06686 2.51454 7.89049L11.5145 2.89049ZM5.05931 8.76465L12.0002 12.6207L18.9411 8.76465L12.0002 4.90861L5.05931 8.76465Z" fill="#231403"/>
<path d="M2.12602 12.279C2.39424 11.7962 3.00304 11.6223 3.48583 11.8905L12.0002 16.6207L20.5145 11.8905C20.9973 11.6223 21.6061 11.7962 21.8743 12.279C22.1426 12.7618 21.9686 13.3706 21.4858 13.6388L12.4858 18.6388C12.1838 18.8066 11.8166 18.8066 11.5145 18.6388L2.51454 13.6388C2.03176 13.3706 1.85781 12.7618 2.12602 12.279Z" fill="#231403"/>
<path d="M2.12602 16.279C2.39424 15.7962 3.00304 15.6223 3.48583 15.8905L12.0002 20.6207L20.5145 15.8905C20.9973 15.6223 21.6061 15.7962 21.8743 16.279C22.1426 16.7618 21.9686 17.3706 21.4858 17.6388L12.4858 22.6388C12.1838 22.8066 11.8166 22.8066 11.5145 22.6388L2.51454 17.6388C2.03176 17.3706 1.85781 16.7618 2.12602 16.279Z" fill="#231403"/>
</svg>
