<svg width="24" height="25" viewBox="0 0 24 25" fill="none" xmlns="http://www.w3.org/2000/svg">
<path d="M4 7.76465C4 7.21236 4.44772 6.76465 5 6.76465H6C6.55228 6.76465 7 7.21236 7 7.76465C7 8.31693 6.55228 8.76465 6 8.76465H5C4.44772 8.76465 4 8.31693 4 7.76465ZM9 7.76465C9 7.21236 9.44772 6.76465 10 6.76465H19C19.5523 6.76465 20 7.21236 20 7.76465C20 8.31693 19.5523 8.76465 19 8.76465H10C9.44772 8.76465 9 8.31693 9 7.76465ZM4 12.7646C4 12.2124 4.44772 11.7646 5 11.7646H6C6.55228 11.7646 7 12.2124 7 12.7646C7 13.3169 6.55228 13.7646 6 13.7646H5C4.44772 13.7646 4 13.3169 4 12.7646ZM9 12.7646C9 12.2124 9.44772 11.7646 10 11.7646H19C19.5523 11.7646 20 12.2124 20 12.7646C20 13.3169 19.5523 13.7646 19 13.7646H10C9.44772 13.7646 9 13.3169 9 12.7646ZM4 17.7646C4 17.2124 4.44772 16.7646 5 16.7646H6C6.55228 16.7646 7 17.2124 7 17.7646C7 18.3169 6.55228 18.7646 6 18.7646H5C4.44772 18.7646 4 18.3169 4 17.7646ZM9 17.7646C9 17.2124 9.44772 16.7646 10 16.7646H19C19.5523 16.7646 20 17.2124 20 17.7646C20 18.3169 19.5523 18.7646 19 18.7646H10C9.44772 18.7646 9 18.3169 9 17.7646Z" fill="#231403"/>
</svg>
