<svg width="16" height="21" viewBox="0 0 16 21" fill="none" xmlns="http://www.w3.org/2000/svg">
<path d="M8 0.764648C3.6 0.764648 0 4.36465 0 8.76465C0 14.1646 7 20.2646 7.3 20.5646C7.5 20.6646 7.8 20.7646 8 20.7646C8.2 20.7646 8.5 20.6646 8.7 20.5646C9 20.2646 16 14.1646 16 8.76465C16 4.36465 12.4 0.764648 8 0.764648ZM8 18.4646C5.9 16.4646 2 12.1646 2 8.76465C2 5.46465 4.7 2.76465 8 2.76465C11.3 2.76465 14 5.46465 14 8.76465C14 12.0646 10.1 16.4646 8 18.4646ZM8 4.76465C5.8 4.76465 4 6.56465 4 8.76465C4 10.9646 5.8 12.7646 8 12.7646C10.2 12.7646 12 10.9646 12 8.76465C12 6.56465 10.2 4.76465 8 4.76465ZM8 10.7646C6.9 10.7646 6 9.86465 6 8.76465C6 7.66465 6.9 6.76465 8 6.76465C9.1 6.76465 10 7.66465 10 8.76465C10 9.86465 9.1 10.7646 8 10.7646Z" fill="#231403"/>
</svg>
