<svg width="16" height="21" viewBox="0 0 16 21" fill="none" xmlns="http://www.w3.org/2000/svg">
<path d="M8 2.76465C9.64772 2.76465 11 4.11693 11 5.76465V8.76465H5V5.76465C5 4.11693 6.35228 2.76465 8 2.76465ZM13 8.76465V5.76465C13 3.01236 10.7523 0.764648 8 0.764648C5.24771 0.764648 3 3.01236 3 5.76465V8.76465H2C0.895431 8.76465 0 9.66008 0 10.7646V18.7646C0 19.8692 0.895432 20.7646 2 20.7646H14C15.1046 20.7646 16 19.8692 16 18.7646V10.7646C16 9.66008 15.1046 8.76465 14 8.76465H13ZM2 10.7646H14V18.7646H2V10.7646Z" fill="#231403"/>
</svg>
