<svg width="20" height="19" viewBox="0 0 20 19" fill="none" xmlns="http://www.w3.org/2000/svg">
<path d="M6.68377 0.815965C6.88904 0.747543 7.11096 0.747543 7.31623 0.815965L13 2.71056L17.3675 1.25471C18.6626 0.82302 20 1.78696 20 3.15207V15.0439C20 15.9048 19.4491 16.669 18.6325 16.9413L13.3162 18.7133C13.111 18.7818 12.889 18.7818 12.6838 18.7133L7 16.8187L2.63246 18.2746C1.33739 18.7063 0 17.7423 0 16.3772V4.48541C0 3.62455 0.55086 2.86027 1.36754 2.58804L6.68377 0.815965ZM8 15.0439L12 16.3772V4.48541L8 3.15207V15.0439ZM6 3.15207L2 4.48541V16.3772L6 15.0439V3.15207ZM14 4.48541V16.3772L18 15.0439V3.15207L14 4.48541Z" fill="#231403"/>
</svg>
