<svg width="16" height="13" viewBox="0 0 16 13" fill="none" xmlns="http://www.w3.org/2000/svg">
<path d="M0 1.76465C0 1.21236 0.447715 0.764648 1 0.764648H15C15.5523 0.764648 16 1.21236 16 1.76465C16 2.31693 15.5523 2.76465 15 2.76465H1C0.447715 2.76465 0 2.31693 0 1.76465ZM0 6.76465C0 6.21236 0.447715 5.76465 1 5.76465H15C15.5523 5.76465 16 6.21236 16 6.76465C16 7.31693 15.5523 7.76465 15 7.76465H1C0.447715 7.76465 0 7.31693 0 6.76465ZM0 11.7646C0 11.2124 0.447715 10.7646 1 10.7646H15C15.5523 10.7646 16 11.2124 16 11.7646C16 12.3169 15.5523 12.7646 15 12.7646H1C0.447715 12.7646 0 12.3169 0 11.7646Z" fill="#231403"/>
</svg>
