<svg width="24" height="25" viewBox="0 0 24 25" fill="none" xmlns="http://www.w3.org/2000/svg">
<path d="M2 6.76465C2 5.66008 2.89543 4.76465 4 4.76465H20C21.1046 4.76465 22 5.66008 22 6.76465V17.7646C22 18.8692 21.1046 19.7646 20 19.7646H15.4142L12.7071 22.4718C12.3166 22.8623 11.6834 22.8623 11.2929 22.4718L8.58579 19.7646H4C2.89543 19.7646 2 18.8692 2 17.7646V6.76465ZM20 6.76465H4V17.7646H9C9.26522 17.7646 9.51957 17.87 9.70711 18.0575L12 20.3504L14.2929 18.0575C14.4804 17.87 14.7348 17.7646 15 17.7646H20V6.76465Z" fill="#231403"/>
<path d="M13.5 12.2646C13.5 13.0931 12.8284 13.7646 12 13.7646C11.1716 13.7646 10.5 13.0931 10.5 12.2646C10.5 11.4362 11.1716 10.7646 12 10.7646C12.8284 10.7646 13.5 11.4362 13.5 12.2646Z" fill="#231403"/>
<path d="M17.5 12.2646C17.5 13.0931 16.8284 13.7646 16 13.7646C15.1716 13.7646 14.5 13.0931 14.5 12.2646C14.5 11.4362 15.1716 10.7646 16 10.7646C16.8284 10.7646 17.5 11.4362 17.5 12.2646Z" fill="#231403"/>
<path d="M9.5 12.2646C9.5 13.0931 8.82843 13.7646 8 13.7646C7.17157 13.7646 6.5 13.0931 6.5 12.2646C6.5 11.4362 7.17157 10.7646 8 10.7646C8.82843 10.7646 9.5 11.4362 9.5 12.2646Z" fill="#231403"/>
</svg>
