<svg width="24" height="25" viewBox="0 0 24 25" fill="none" xmlns="http://www.w3.org/2000/svg">
<path d="M2 6.76465C2 5.66008 2.89543 4.76465 4 4.76465H20C21.1046 4.76465 22 5.66008 22 6.76465V17.7646C22 18.8692 21.1046 19.7646 20 19.7646H15.4142L12.7071 22.4718C12.3166 22.8623 11.6834 22.8623 11.2929 22.4718L8.58579 19.7646H4C2.89543 19.7646 2 18.8692 2 17.7646V6.76465ZM20 6.76465H4V17.7646H9C9.26522 17.7646 9.51957 17.87 9.70711 18.0575L12 20.3504L14.2929 18.0575C14.4804 17.87 14.7348 17.7646 15 17.7646H20V6.76465ZM6 10.2646C6 9.71236 6.44772 9.26465 7 9.26465H17C17.5523 9.26465 18 9.71236 18 10.2646C18 10.8169 17.5523 11.2646 17 11.2646H7C6.44772 11.2646 6 10.8169 6 10.2646ZM6 14.2646C6 13.7124 6.44772 13.2646 7 13.2646H13C13.5523 13.2646 14 13.7124 14 14.2646C14 14.8169 13.5523 15.2646 13 15.2646H7C6.44772 15.2646 6 14.8169 6 14.2646Z" fill="#231403"/>
</svg>
