<svg width="24" height="25" viewBox="0 0 24 25" fill="none" xmlns="http://www.w3.org/2000/svg">
<path d="M6 5.76465C6 4.66008 6.89543 3.76465 8 3.76465H16C17.1046 3.76465 18 4.66008 18 5.76465V19.7646C18 20.8692 17.1046 21.7646 16 21.7646H8C6.89543 21.7646 6 20.8692 6 19.7646V5.76465ZM16 5.76465H8V19.7646H16V5.76465Z" fill="#231403"/>
<path d="M13 17.7646C13 18.3169 12.5523 18.7646 12 18.7646C11.4477 18.7646 11 18.3169 11 17.7646C11 17.2124 11.4477 16.7646 12 16.7646C12.5523 16.7646 13 17.2124 13 17.7646Z" fill="#231403"/>
</svg>
