<svg width="24" height="25" viewBox="0 0 24 25" fill="none" xmlns="http://www.w3.org/2000/svg">
<path d="M9.36077 4.05757C9.6659 4.36269 9.74089 4.82912 9.54678 5.2145C9.04068 6.21936 8.75521 7.35502 8.75521 8.56024C8.75521 12.6743 12.0903 16.0095 16.2044 16.0095C17.4097 16.0095 18.5453 15.724 19.5502 15.2179C19.9356 15.0238 20.402 15.0988 20.7071 15.4039C21.0122 15.709 21.0872 16.1755 20.8931 16.5608C19.3396 19.6453 16.1428 21.7647 12.4492 21.7647C7.23056 21.7647 3 17.5341 3 12.3154C3 8.62186 5.11941 5.42506 8.20384 3.87156C8.58923 3.67746 9.05565 3.75245 9.36077 4.05757ZM6.8217 7.43427C5.68637 8.74208 5 10.449 5 12.3154C5 16.4295 8.33513 19.7647 12.4492 19.7647C14.3157 19.7647 16.0226 19.0783 17.3304 17.943C16.9611 17.9869 16.5853 18.0095 16.2044 18.0095C10.9858 18.0095 6.75521 13.7789 6.75521 8.56024C6.75521 8.17939 6.77779 7.80363 6.8217 7.43427Z" fill="#231403"/>
</svg>
