<svg width="24" height="25" viewBox="0 0 24 25" fill="none" xmlns="http://www.w3.org/2000/svg">
<path d="M5 8.53092C5 6.97633 6.69594 6.01611 8.02899 6.81594L15.0853 11.0497C16.38 11.8265 16.38 13.7029 15.0853 14.4797L8.02899 18.7135C6.69595 19.5134 5 18.5531 5 16.9985V8.53092ZM14.0563 12.7647L7 8.53092V16.9985L14.0563 12.7647Z" fill="#231403"/>
<path d="M18 6.76473C18.5523 6.76473 19 7.21245 19 7.76473V17.7647C19 18.317 18.5523 18.7647 18 18.7647C17.4477 18.7647 17 18.317 17 17.7647V7.76473C17 7.21245 17.4477 6.76473 18 6.76473Z" fill="#231403"/>
</svg>
