<svg width="18" height="21" viewBox="0 0 18 21" fill="none" xmlns="http://www.w3.org/2000/svg">
<path d="M16.0001 8.76465C16.0001 5.54044 13.8203 2.82536 10.854 2.01277C10.5568 1.28081 9.83873 0.764648 9.00011 0.764648C8.16148 0.764648 7.44341 1.28081 7.14625 2.01277C6.58616 2.1662 6.05411 2.38746 5.55948 2.66717L7.05107 4.15876C7.65002 3.905 8.30867 3.76465 9.00011 3.76465C11.7615 3.76465 14.0001 6.00322 14.0001 8.76465V11.1078L16.0001 13.1078V8.76465Z" fill="#231403"/>
<path d="M0.175403 16.1989L2.00011 13.4619V8.76464C2.00011 7.71451 2.23134 6.7184 2.64568 5.82443L0.293 3.47176C-0.0975243 3.08123 -0.0975243 2.44807 0.293 2.05754C0.683524 1.66702 1.31669 1.66702 1.70721 2.05754L17.7072 18.0575C18.0977 18.4481 18.0977 19.0812 17.7072 19.4718C17.3167 19.8623 16.6835 19.8623 16.293 19.4718L14.5859 17.7646H12.4647C12.222 19.4608 10.7633 20.7646 9.00011 20.7646C7.23687 20.7646 5.77817 19.4608 5.53555 17.7646H1.01307C0.915657 17.766 0.81754 17.7532 0.721972 17.7255C0.596128 17.6891 0.480491 17.6287 0.380363 17.5495C0.166798 17.3806 0.0237898 17.1265 0.00278663 16.8384C-0.00639049 16.7155 0.00701021 16.5904 0.0443123 16.4697C0.0743517 16.3722 0.118888 16.2811 0.175403 16.1989ZM2.86862 15.7646H12.5859L4.19586 7.37461C4.06841 7.81591 4.00011 8.2823 4.00011 8.76464V13.7646C4.00011 13.9621 3.94167 14.1551 3.83216 14.3193L2.86862 15.7646ZM7.58546 17.7646C7.79138 18.3472 8.347 18.7646 9.00011 18.7646C9.65322 18.7646 10.2088 18.3472 10.4148 17.7646H7.58546Z" fill="#231403"/>
</svg>
