<svg width="18" height="21" viewBox="0 0 18 21" fill="none" xmlns="http://www.w3.org/2000/svg">
<path d="M7.14614 2.01277C7.4433 1.28081 8.16138 0.764648 9 0.764648C9.83863 0.764648 10.5567 1.28081 10.8539 2.01277C13.8202 2.82537 16 5.54044 16 8.76465V13.4619L17.8321 16.2099C18.0366 16.5168 18.0557 16.9114 17.8817 17.2365C17.7077 17.5617 17.3688 17.7646 17 17.7646H12.4646C12.2219 19.4608 10.7632 20.7646 9 20.7646C7.23677 20.7646 5.77806 19.4608 5.53545 17.7646H1C0.631206 17.7646 0.292346 17.5617 0.118327 17.2365C-0.0556921 16.9114 -0.0366195 16.5168 0.167951 16.2099L2 13.4619V8.76465C2 5.54044 4.17983 2.82537 7.14614 2.01277ZM7.58535 17.7646C7.79127 18.3472 8.34689 18.7646 9 18.7646C9.65311 18.7646 10.2087 18.3472 10.4146 17.7646H7.58535ZM9 3.76465C6.23858 3.76465 4 6.00322 4 8.76465V13.7646C4 13.9621 3.94156 14.1551 3.83205 14.3193L2.86852 15.7646H15.1315L14.168 14.3193C14.0584 14.1551 14 13.9621 14 13.7646V8.76465C14 6.00322 11.7614 3.76465 9 3.76465Z" fill="#231403"/>
</svg>
