<svg width="16" height="21" viewBox="0 0 16 21" fill="none" xmlns="http://www.w3.org/2000/svg">
<path d="M7.29289 1.05754C7.68342 0.667017 8.31658 0.667017 8.70711 1.05754L12.7071 5.05754C13.0976 5.44807 13.0976 6.08123 12.7071 6.47176C12.3166 6.86228 11.6834 6.86228 11.2929 6.47176L9 4.17886V14.7646C9 15.3169 8.55228 15.7646 8 15.7646C7.44772 15.7646 7 15.3169 7 14.7646V4.17886L4.70711 6.47176C4.31658 6.86228 3.68342 6.86228 3.29289 6.47176C2.90237 6.08123 2.90237 5.44807 3.29289 5.05754L7.29289 1.05754ZM1 15.7646C1.55228 15.7646 2 16.2124 2 16.7646V18.7646H14V16.7646C14 16.2124 14.4477 15.7646 15 15.7646C15.5523 15.7646 16 16.2124 16 16.7646V18.7646C16 19.8692 15.1046 20.7646 14 20.7646H2C0.895431 20.7646 0 19.8692 0 18.7646V16.7646C0 16.2124 0.447715 15.7646 1 15.7646Z" fill="#231403"/>
</svg>
