<svg width="14" height="15" viewBox="0 0 14 15" fill="none" xmlns="http://www.w3.org/2000/svg">
<path d="M13.7071 1.05754C14.0976 1.44807 14.0976 2.08123 13.7071 2.47176L1.70711 14.4718C1.31658 14.8623 0.683417 14.8623 0.292893 14.4718C-0.0976311 14.0812 -0.0976311 13.4481 0.292893 13.0575L12.2929 1.05754C12.6834 0.667017 13.3166 0.667017 13.7071 1.05754Z" fill="#231403"/>
<path d="M12 14.7646C13.1046 14.7646 14 13.8692 14 12.7646C14 11.6601 13.1046 10.7646 12 10.7646C10.8954 10.7646 10 11.6601 10 12.7646C10 13.8692 10.8954 14.7646 12 14.7646Z" fill="#231403"/>
<path d="M2 4.76465C3.10457 4.76465 4 3.86922 4 2.76465C4 1.66008 3.10457 0.764648 2 0.764648C0.89543 0.764648 2.98023e-08 1.66008 2.98023e-08 2.76465C2.98023e-08 3.86922 0.89543 4.76465 2 4.76465Z" fill="#231403"/>
</svg>
