<svg width="24" height="25" viewBox="0 0 24 25" fill="none" xmlns="http://www.w3.org/2000/svg">
<path d="M11.25 8.41455L8.25 21.1646" stroke="#231403" stroke-width="2" stroke-linecap="round" stroke-linejoin="round"/>
<path d="M5.76996 14.8414C5.11752 13.8682 4.70216 12.7557 4.55717 11.5931C4.41217 10.4304 4.54158 9.24995 4.93501 8.14632C5.32845 7.04269 5.97497 6.04658 6.82275 5.23785C7.67053 4.42911 8.696 3.83024 9.81693 3.48924C10.9379 3.14824 12.1231 3.07459 13.2776 3.2742C14.4322 3.47381 15.5239 3.94113 16.4653 4.6387C17.4066 5.33626 18.1715 6.24467 18.6985 7.2911C19.2256 8.33754 19.5001 9.49289 19.5002 10.6646C19.5002 14.8067 16.5002 17.4146 13.5002 17.4146C10.5002 17.4146 9.59721 15.4396 9.59721 15.4396" stroke="#231403" stroke-width="2" stroke-linecap="round" stroke-linejoin="round"/>
</svg>
