<svg width="24" height="25" viewBox="0 0 24 25" fill="none" xmlns="http://www.w3.org/2000/svg">
<path d="M19 8.53092C19 6.97633 17.3041 6.01611 15.971 6.81594L8.91466 11.0497C7.61998 11.8265 7.61998 13.7029 8.91466 14.4797L15.971 18.7135C17.3041 19.5134 19 18.5531 19 16.9985V8.53092ZM9.94365 12.7647L17 8.53092V16.9985L9.94365 12.7647Z" fill="#231403"/>
<path d="M6 6.76473C6.55228 6.76473 7 7.21245 7 7.76473V17.7647C7 18.317 6.55228 18.7647 6 18.7647C5.44772 18.7647 5 18.317 5 17.7647V7.76473C5 7.21245 5.44772 6.76473 6 6.76473Z" fill="#231403"/>
</svg>
