<svg width="24" height="25" viewBox="0 0 24 25" fill="none" xmlns="http://www.w3.org/2000/svg">
<path d="M11 2.76465C7.68629 2.76465 5 5.45094 5 8.76465C5 8.90246 5.00466 9.0393 5.01385 9.17499C3.24073 9.94334 2 11.7082 2 13.7646C2 15.2582 2.65607 16.5997 3.69244 17.5144C4.10651 17.8799 4.73845 17.8405 5.10391 17.4264C5.46938 17.0123 5.42998 16.3804 5.01591 16.0149C4.39144 15.4637 4 14.6605 4 13.7646C4 12.3356 5.00015 11.1378 6.33958 10.8374C6.8783 10.7165 7.21716 10.1819 7.09656 9.64317C7.03348 9.36138 7 9.06752 7 8.76465C7 6.55551 8.79086 4.76465 11 4.76465C12.9343 4.76465 14.5499 6.1386 14.9201 7.96436C15.0161 8.43777 15.4368 8.77489 15.9198 8.76543C15.9465 8.76491 15.9732 8.76465 16 8.76465C18.2091 8.76465 20 10.5555 20 12.7646C20 14.0725 19.3734 15.2337 18.3998 15.9652C17.9583 16.2969 17.8693 16.9238 18.201 17.3653C18.5327 17.8069 19.1596 17.8959 19.6012 17.5641C21.0559 16.4712 22 14.728 22 12.7646C22 9.67786 19.669 7.1355 16.6713 6.80178C15.858 4.4521 13.627 2.76465 11 2.76465ZM12.9487 16.0809C13.1233 15.557 12.8402 14.9906 12.3162 14.816C11.7923 14.6413 11.226 14.9245 11.0513 15.4484L9.05131 21.4484C8.87667 21.9724 9.15983 22.5387 9.68377 22.7134C10.2077 22.888 10.774 22.6048 10.9487 22.0809L12.9487 16.0809ZM16.3162 13.816C16.8402 13.9906 17.1233 14.557 16.9487 15.0809L14.9487 21.0809C14.774 21.6048 14.2077 21.888 13.6838 21.7134C13.1598 21.5387 12.8767 20.9724 13.0513 20.4484L15.0513 14.4484C15.226 13.9245 15.7923 13.6413 16.3162 13.816ZM9.44868 15.0809C9.62333 14.557 9.34017 13.9906 8.81622 13.816C8.29228 13.6413 7.72596 13.9245 7.55131 14.4484L5.55131 20.4484C5.37667 20.9724 5.65983 21.5387 6.18377 21.7134C6.70771 21.888 7.27403 21.6048 7.44868 21.0809L9.44868 15.0809Z" fill="#231403"/>
</svg>
