<svg width="16" height="21" viewBox="0 0 16 21" fill="none" xmlns="http://www.w3.org/2000/svg">
<path d="M7.29289 1.05754C7.68342 0.667017 8.31658 0.667017 8.70711 1.05754L11.7071 4.05754C12.0976 4.44807 12.0976 5.08123 11.7071 5.47176C11.3166 5.86228 10.6834 5.86228 10.2929 5.47176L9 4.17886V13.7646C9 14.3169 8.55228 14.7646 8 14.7646C7.44772 14.7646 7 14.3169 7 13.7646V4.17886L5.70711 5.47176C5.31658 5.86228 4.68342 5.86228 4.29289 5.47176C3.90237 5.08123 3.90237 4.44807 4.29289 4.05754L7.29289 1.05754ZM0 9.76465C0 8.66008 0.895431 7.76465 2 7.76465H4C4.55228 7.76465 5 8.21236 5 8.76465C5 9.31693 4.55228 9.76465 4 9.76465H2V18.7646H14V9.76465H12C11.4477 9.76465 11 9.31693 11 8.76465C11 8.21236 11.4477 7.76465 12 7.76465H14C15.1046 7.76465 16 8.66008 16 9.76465V18.7646C16 19.8692 15.1046 20.7646 14 20.7646H2C0.895431 20.7646 0 19.8692 0 18.7646V9.76465Z" fill="#231403"/>
</svg>
