<svg width="24" height="25" viewBox="0 0 24 25" fill="none" xmlns="http://www.w3.org/2000/svg">
<path d="M20.9241 6.38187C20.8753 6.26392 20.803 6.15342 20.7071 6.05754L17.7071 3.05754C17.3166 2.66702 16.6834 2.66702 16.2929 3.05754C15.9024 3.44807 15.9024 4.08123 16.2929 4.47176L17.5858 5.76465L8 5.76465C5.23858 5.76465 3 8.00322 3 10.7646V12.7646C3 13.3169 3.44772 13.7646 4 13.7646C4.55228 13.7646 5 13.3169 5 12.7646L5 10.7646C5 9.10779 6.34315 7.76465 8 7.76465L17.5858 7.76465L16.2929 9.05754C15.9024 9.44807 15.9024 10.0812 16.2929 10.4718C16.6834 10.8623 17.3166 10.8623 17.7071 10.4718L20.7063 7.47252C20.7088 7.47009 20.7112 7.46765 20.7136 7.4652C20.9045 7.27078 21 7.01772 21 6.76465" fill="#231403"/>
<path d="M20.9241 6.38187C20.9727 6.4989 20.9996 6.62715 21 6.76165L20.9241 6.38187Z" fill="#231403"/>
<path d="M3.07588 18.3819C3.02699 18.4998 3 18.6291 3 18.7646C3 19.0408 3.11193 19.2908 3.29289 19.4718L6.29289 22.4718C6.68342 22.8623 7.31658 22.8623 7.70711 22.4718C8.09763 22.0812 8.09763 21.4481 7.70711 21.0575L6.41421 19.7646L16 19.7647C18.7614 19.7647 21 17.5261 21 14.7647V12.7647C21 12.2124 20.5523 11.7647 20 11.7647C19.4477 11.7647 19 12.2124 19 12.7647V14.7647C19 16.4215 17.6569 17.7647 16 17.7647L6.41421 17.7646L7.70711 16.4718C8.09763 16.0812 8.09763 15.4481 7.70711 15.0575C7.31658 14.667 6.68342 14.667 6.29289 15.0575L3.29316 18.0573" fill="#231403"/>
<path d="M3.07588 18.3819C3.12432 18.2648 3.19595 18.155 3.29078 18.0597L3.07588 18.3819Z" fill="#231403"/>
</svg>
