<svg width="24" height="25" viewBox="0 0 24 25" fill="none" xmlns="http://www.w3.org/2000/svg">
<path d="M3 5.76465C3 4.66008 3.89543 3.76465 5 3.76465H9H15H16.5858C17.1162 3.76465 17.6249 3.97536 18 4.35043L20.7071 7.05754C20.8946 7.24508 21 7.49943 21 7.76465V19.7646C21 20.8692 20.1046 21.7646 19 21.7646H15H9H5C3.89543 21.7646 3 20.8692 3 19.7646V5.76465ZM9 19.7646H15V13.7646H9V19.7646ZM17 19.7646H19V8.17886L17 6.17886V7.76465C17 8.86922 16.1046 9.76465 15 9.76465H9C7.89543 9.76465 7 8.86922 7 7.76465V5.76465H5V19.7646H7V13.7646C7 12.6601 7.89543 11.7646 9 11.7646H15C16.1046 11.7646 17 12.6601 17 13.7646V19.7646ZM9 5.76465V7.76465H15V5.76465H9Z" fill="#231403"/>
</svg>
