<svg width="20" height="21" viewBox="0 0 20 21" fill="none" xmlns="http://www.w3.org/2000/svg">
<path d="M8 2.76465C4.68629 2.76465 2 5.45094 2 8.76465C2 12.0784 4.68629 14.7646 8 14.7646C11.3137 14.7646 14 12.0784 14 8.76465C14 5.45094 11.3137 2.76465 8 2.76465ZM0 8.76465C0 4.34637 3.58172 0.764648 8 0.764648C12.4183 0.764648 16 4.34637 16 8.76465C16 10.6134 15.3729 12.3156 14.3199 13.6703L19.7071 19.0575C20.0976 19.4481 20.0976 20.0812 19.7071 20.4718C19.3166 20.8623 18.6834 20.8623 18.2929 20.4718L12.9056 15.0845C11.551 16.1376 9.84871 16.7646 8 16.7646C3.58172 16.7646 0 13.1829 0 8.76465Z" fill="#231403"/>
</svg>
