<svg width="20" height="17" viewBox="0 0 20 17" fill="none" xmlns="http://www.w3.org/2000/svg">
<path d="M4.29289 1.05754C4.68342 0.667017 5.31658 0.667017 5.70711 1.05754L9.70711 5.05754C10.0976 5.44807 10.0976 6.08123 9.70711 6.47176C9.31658 6.86228 8.68342 6.86228 8.29289 6.47176L6 4.17886V15.7646C6 16.3169 5.55228 16.7646 5 16.7646C4.44772 16.7646 4 16.3169 4 15.7646V4.17886L1.70711 6.47176C1.31658 6.86228 0.683417 6.86228 0.292893 6.47176C-0.0976311 6.08123 -0.0976311 5.44807 0.292893 5.05754L4.29289 1.05754ZM14 13.3504V1.76465C14 1.21236 14.4477 0.764648 15 0.764648C15.5523 0.764648 16 1.21236 16 1.76465V13.3504L18.2929 11.0575C18.6834 10.667 19.3166 10.667 19.7071 11.0575C20.0976 11.4481 20.0976 12.0812 19.7071 12.4718L15.7071 16.4718C15.5196 16.6593 15.2652 16.7646 15 16.7646C14.7348 16.7646 14.4804 16.6593 14.2929 16.4718L10.2929 12.4718C9.90237 12.0812 9.90237 11.4481 10.2929 11.0575C10.6834 10.667 11.3166 10.667 11.7071 11.0575L14 13.3504Z" fill="#231403"/>
</svg>
