<svg width="24" height="25" viewBox="0 0 24 25" fill="none" xmlns="http://www.w3.org/2000/svg">
<path d="M11 2.76465C7.68629 2.76465 5 5.45094 5 8.76465C5 8.90246 5.00466 9.0393 5.01385 9.17499C3.24073 9.94334 2 11.7082 2 13.7646C2 15.2582 2.65607 16.5997 3.69244 17.5144C4.10651 17.8799 4.73845 17.8405 5.10391 17.4264C5.46938 17.0123 5.42998 16.3804 5.01591 16.0149C4.39144 15.4637 4 14.6605 4 13.7646C4 12.3356 5.00015 11.1378 6.33958 10.8374C6.8783 10.7165 7.21716 10.1819 7.09656 9.64317C7.03348 9.36138 7 9.06752 7 8.76465C7 6.55551 8.79086 4.76465 11 4.76465C12.9343 4.76465 14.5499 6.1386 14.9201 7.96436C15.0161 8.43777 15.4368 8.77489 15.9198 8.76543C15.9465 8.76491 15.9732 8.76465 16 8.76465C18.2091 8.76465 20 10.5555 20 12.7646C20 14.0725 19.3734 15.2337 18.3998 15.9652C17.9583 16.2969 17.8693 16.9238 18.201 17.3653C18.5327 17.8069 19.1596 17.8959 19.6012 17.5641C21.0559 16.4712 22 14.728 22 12.7646C22 9.67786 19.669 7.1355 16.6713 6.80178C15.858 4.4521 13.627 2.76465 11 2.76465ZM14.5 17.7646C15.3284 17.7646 16 17.0931 16 16.2646C16 15.4362 15.3284 14.7646 14.5 14.7646C13.6716 14.7646 13 15.4362 13 16.2646C13 17.0931 13.6716 17.7646 14.5 17.7646ZM11 17.2646C11 18.0931 10.3284 18.7646 9.5 18.7646C8.67157 18.7646 8 18.0931 8 17.2646C8 16.4362 8.67157 15.7646 9.5 15.7646C10.3284 15.7646 11 16.4362 11 17.2646ZM15 20.2646C15 21.0931 14.3284 21.7646 13.5 21.7646C12.6716 21.7646 12 21.0931 12 20.2646C12 19.4362 12.6716 18.7646 13.5 18.7646C14.3284 18.7646 15 19.4362 15 20.2646ZM10 21.2646C10 22.0931 9.32843 22.7646 8.5 22.7646C7.67157 22.7646 7 22.0931 7 21.2646C7 20.4362 7.67157 19.7646 8.5 19.7646C9.32843 19.7646 10 20.4362 10 21.2646Z" fill="#231403"/>
</svg>
