<svg width="24" height="25" viewBox="0 0 24 25" fill="none" xmlns="http://www.w3.org/2000/svg">
<path d="M13 3.76465C13 3.21236 12.5523 2.76465 12 2.76465C11.4477 2.76465 11 3.21236 11 3.76465V6.35046L9.05023 4.40069C8.65971 4.01017 8.02654 4.01017 7.63602 4.40069C7.24549 4.79122 7.24549 5.42438 7.63602 5.81491L11 9.17889V11.7646H8.41418L5.05023 8.40069C4.65971 8.01017 4.02654 8.01017 3.63602 8.40069C3.24549 8.79122 3.24549 9.42438 3.63602 9.81491L5.58576 11.7646H3C2.44772 11.7646 2 12.2124 2 12.7646C2 13.3169 2.44772 13.7646 3 13.7646H5.58576L3.63603 15.7144C3.24551 16.1049 3.24551 16.7381 3.63603 17.1286C4.02656 17.5191 4.65972 17.5191 5.05025 17.1286L8.41419 13.7646H11V16.3504L7.63603 19.7144C7.24551 20.1049 7.24551 20.7381 7.63603 21.1286C8.02656 21.5191 8.65972 21.5191 9.05025 21.1286L11 19.1788V21.7646C11 22.3169 11.4477 22.7646 12 22.7646C12.5523 22.7646 13 22.3169 13 21.7646V19.1788L14.9497 21.1285C15.3402 21.519 15.9734 21.519 16.3639 21.1285C16.7545 20.738 16.7545 20.1048 16.3639 19.7143L13 16.3503V13.7646H15.5859L18.9497 17.1285C19.3402 17.519 19.9734 17.519 20.3639 17.1285C20.7545 16.738 20.7545 16.1048 20.3639 15.7143L18.4143 13.7646H21C21.5523 13.7646 22 13.3169 22 12.7646C22 12.2124 21.5523 11.7646 21 11.7646H18.4143L20.3639 9.81502C20.7545 9.42449 20.7545 8.79133 20.3639 8.4008C19.9734 8.01028 19.3403 8.01028 18.9497 8.4008L15.5859 11.7646H13V9.17896L16.364 5.815C16.7545 5.42448 16.7545 4.79131 16.364 4.40079C15.9734 4.01026 15.3403 4.01026 14.9497 4.40079L13 6.35053V3.76465Z" fill="#231403"/>
</svg>
