<svg width="16" height="21" viewBox="0 0 16 21" fill="none" xmlns="http://www.w3.org/2000/svg">
<path d="M10.2929 1.05754C10.6834 0.667017 11.3166 0.667017 11.7071 1.05754L15.7071 5.05754C16.0976 5.44807 16.0976 6.08123 15.7071 6.47176L11.7071 10.4718C11.3166 10.8623 10.6834 10.8623 10.2929 10.4718C9.90237 10.0812 9.90237 9.44807 10.2929 9.05754L12.5858 6.76465L1 6.76465C0.447716 6.76465 4.17233e-07 6.31693 4.17233e-07 5.76465C4.76837e-07 5.21236 0.447716 4.76465 1 4.76465L12.5858 4.76465L10.2929 2.47176C9.90237 2.08123 9.90237 1.44807 10.2929 1.05754ZM5.70711 11.0575C6.09763 11.4481 6.09763 12.0812 5.70711 12.4718L3.41421 14.7646H15C15.5523 14.7646 16 15.2124 16 15.7646C16 16.3169 15.5523 16.7646 15 16.7646H3.41421L5.70711 19.0575C6.09763 19.4481 6.09763 20.0812 5.70711 20.4718C5.31658 20.8623 4.68342 20.8623 4.29289 20.4718L0.292893 16.4718C0.105357 16.2842 0 16.0299 0 15.7646C0 15.4994 0.105357 15.2451 0.292893 15.0575L4.29289 11.0575C4.68342 10.667 5.31658 10.667 5.70711 11.0575Z" fill="#231403"/>
</svg>
