<svg width="24" height="25" viewBox="0 0 24 25" fill="none" xmlns="http://www.w3.org/2000/svg">
<path d="M4 4.76465C4 3.66008 4.89543 2.76465 6 2.76465H18C19.1046 2.76465 20 3.66008 20 4.76465V20.7646C20 21.8692 19.1046 22.7646 18 22.7646H6C4.89543 22.7646 4 21.8692 4 20.7646V4.76465ZM18 4.76465L6 4.76465V20.7646H18V4.76465Z" fill="#231403"/>
<path d="M12 12.7646C10.8954 12.7646 10 13.6601 10 14.7646C10 15.8692 10.8954 16.7646 12 16.7646C13.1046 16.7646 14 15.8692 14 14.7646C14 13.6601 13.1046 12.7646 12 12.7646ZM8 14.7646C8 12.5555 9.79086 10.7646 12 10.7646C14.2091 10.7646 16 12.5555 16 14.7646C16 16.9738 14.2091 18.7646 12 18.7646C9.79086 18.7646 8 16.9738 8 14.7646Z" fill="#231403"/>
<path d="M13.5 8.26465C13.5 9.09308 12.8284 9.76465 12 9.76465C11.1716 9.76465 10.5 9.09308 10.5 8.26465C10.5 7.43622 11.1716 6.76465 12 6.76465C12.8284 6.76465 13.5 7.43622 13.5 8.26465Z" fill="#231403"/>
</svg>
