<svg width="24" height="25" viewBox="0 0 24 25" fill="none" xmlns="http://www.w3.org/2000/svg">
<path d="M11 2.76465C7.68629 2.76465 5 5.45094 5 8.76465C5 8.90246 5.00466 9.0393 5.01385 9.17499C3.24073 9.94334 2 11.7082 2 13.7646C2 16.0958 3.59442 18.0521 5.75074 18.6071C6.28559 18.7447 6.83078 18.4227 6.96844 17.8879C7.1061 17.353 6.78411 16.8079 6.24926 16.6702C4.95512 16.3371 4 15.1612 4 13.7646C4 12.3356 5.00015 11.1378 6.33958 10.8374C6.8783 10.7165 7.21716 10.1819 7.09656 9.64317C7.03348 9.36138 7 9.06752 7 8.76465C7 6.55551 8.79086 4.76465 11 4.76465C12.9343 4.76465 14.5499 6.1386 14.9201 7.96436C15.0161 8.43777 15.4368 8.77489 15.9198 8.76543C15.9465 8.76491 15.9732 8.76465 16 8.76465C18.2091 8.76465 20 10.5555 20 12.7646C20 14.4033 19.0144 15.8141 17.5996 16.4323C17.0935 16.6534 16.8625 17.2429 17.0836 17.749C17.3048 18.2551 17.8943 18.4861 18.4004 18.265C20.5174 17.34 22 15.2266 22 12.7646C22 9.67786 19.669 7.1355 16.6713 6.80178C15.858 4.4521 13.627 2.76465 11 2.76465ZM12.8944 14.2119C13.1414 13.7179 12.9412 13.1172 12.4472 12.8702C11.9532 12.6232 11.3526 12.8235 11.1056 13.3174L9.10557 17.3174C8.95058 17.6274 8.96714 17.9956 9.14935 18.2904C9.33156 18.5852 9.65342 18.7646 10 18.7646H12.382L11.1056 21.3174C10.8586 21.8114 11.0588 22.4121 11.5528 22.6591C12.0468 22.9061 12.6474 22.7058 12.8944 22.2119L14.8944 18.2119C15.0494 17.9019 15.0329 17.5337 14.8507 17.2389C14.6684 16.9441 14.3466 16.7646 14 16.7646H11.618L12.8944 14.2119Z" fill="#231403"/>
</svg>
