<svg width="24" height="25" viewBox="0 0 24 25" fill="none" xmlns="http://www.w3.org/2000/svg">
<path d="M12 5.76465C9.5711 5.76465 8 7.30449 8 8.76465C8 9.56874 8.28058 10.1266 8.8649 10.5823C9.49617 11.0745 10.5296 11.4796 12.0894 11.7646H19C19.5523 11.7646 20 12.2124 20 12.7646C20 13.3169 19.5523 13.7646 19 13.7646H16.811C17.5989 14.559 18 15.5677 18 16.7646C18 19.7228 15.0939 21.7646 12 21.7646C10.0022 21.7646 8.17336 20.9501 7.06427 19.6157C6.71127 19.1909 6.76942 18.5605 7.19416 18.2074C7.6189 17.8544 8.24939 17.9126 8.6024 18.3373C9.28484 19.1585 10.5196 19.7646 12 19.7646C14.4289 19.7646 16 18.2248 16 16.7646C16 15.9606 15.7194 15.4027 15.1351 14.947C14.5038 14.4548 13.4704 14.0497 11.9106 13.7646H5C4.44772 13.7646 4 13.3169 4 12.7646C4 12.2124 4.44772 11.7646 5 11.7646H7.18902C6.40111 10.9703 6 9.96155 6 8.76465C6 5.80653 8.90606 3.76465 12 3.76465C13.4774 3.76465 14.8517 4.20837 15.9155 4.97011C16.3645 5.29163 16.4679 5.9163 16.1464 6.36534C15.8249 6.81439 15.2002 6.91776 14.7512 6.59624C14.0458 6.0912 13.0837 5.76465 12 5.76465Z" fill="#231403"/>
</svg>
