<svg width="24" height="25" viewBox="0 0 24 25" fill="none" xmlns="http://www.w3.org/2000/svg">
<path d="M12 2.76465C12.5523 2.76465 13 3.21236 13 3.76465V4.76465C13 5.31693 12.5523 5.76465 12 5.76465C11.4477 5.76465 11 5.31693 11 4.76465V3.76465C11 3.21236 11.4477 2.76465 12 2.76465ZM19.0711 5.69357C19.4616 6.0841 19.4616 6.71726 19.0711 7.10779L18.364 7.81489C17.9735 8.20542 17.3403 8.20542 16.9498 7.81489C16.5593 7.42437 16.5593 6.79121 16.9498 6.40068L17.6569 5.69357C18.0474 5.30305 18.6806 5.30305 19.0711 5.69357ZM4.92893 5.69357C5.31945 5.30305 5.95262 5.30305 6.34314 5.69357L7.05025 6.40068C7.44077 6.79121 7.44077 7.42437 7.05025 7.81489C6.65972 8.20542 6.02656 8.20542 5.63603 7.81489L4.92893 7.10779C4.5384 6.71726 4.5384 6.0841 4.92893 5.69357ZM12 8.76465C9.79086 8.76465 8 10.5555 8 12.7646C8 14.9738 9.79086 16.7646 12 16.7646C14.2091 16.7646 16 14.9738 16 12.7646C16 10.5555 14.2091 8.76465 12 8.76465ZM6 12.7646C6 9.45094 8.68629 6.76465 12 6.76465C15.3137 6.76465 18 9.45094 18 12.7646C18 16.0784 15.3137 18.7646 12 18.7646C8.68629 18.7646 6 16.0784 6 12.7646ZM2 12.7646C2 12.2124 2.44772 11.7646 3 11.7646H4C4.55228 11.7646 5 12.2124 5 12.7646C5 13.3169 4.55228 13.7646 4 13.7646H3C2.44772 13.7646 2 13.3169 2 12.7646ZM19 12.7646C19 12.2124 19.4477 11.7646 20 11.7646H21C21.5523 11.7646 22 12.2124 22 12.7646C22 13.3169 21.5523 13.7646 21 13.7646H20C19.4477 13.7646 19 13.3169 19 12.7646ZM5.63603 17.7144C6.02656 17.3239 6.65972 17.3239 7.05025 17.7144C7.44077 18.1049 7.44077 18.7381 7.05025 19.1286L6.34314 19.8357C5.95262 20.2262 5.31945 20.2262 4.92893 19.8357C4.5384 19.4452 4.5384 18.812 4.92893 18.4215L5.63603 17.7144ZM16.9498 19.1286C16.5593 18.7381 16.5593 18.1049 16.9498 17.7144C17.3403 17.3239 17.9735 17.3239 18.364 17.7144L19.0711 18.4215C19.4616 18.812 19.4616 19.4452 19.0711 19.8357C18.6806 20.2262 18.0474 20.2262 17.6569 19.8357L16.9498 19.1286ZM12 19.7646C12.5523 19.7646 13 20.2124 13 20.7646V21.7646C13 22.3169 12.5523 22.7646 12 22.7646C11.4477 22.7646 11 22.3169 11 21.7646V20.7646C11 20.2124 11.4477 19.7646 12 19.7646Z" fill="#231403"/>
</svg>
