<svg width="24" height="25" viewBox="0 0 24 25" fill="none" xmlns="http://www.w3.org/2000/svg">
<path fill-rule="evenodd" clip-rule="evenodd" d="M12.7071 3.05754C12.3166 2.66702 11.6834 2.66702 11.2929 3.05754L9.29289 5.05754C8.90237 5.44807 8.90237 6.08123 9.29289 6.47176C9.68342 6.86228 10.3166 6.86228 10.7071 6.47176L11 6.17886V8.90751C11 9.38089 11.4477 9.76465 12 9.76465C12.5523 9.76465 13 9.38089 13 8.90751V6.17886L13.2929 6.47176C13.6834 6.86228 14.3166 6.86228 14.7071 6.47176C15.0976 6.08123 15.0976 5.44807 14.7071 5.05754L12.7071 3.05754ZM5.63603 11.8148C6.02656 12.2053 6.65972 12.2053 7.05025 11.8148C7.44077 11.4242 7.44077 10.7911 7.05025 10.4006L6.34314 9.69345C5.95262 9.30293 5.31945 9.30293 4.92893 9.69345C4.5384 10.084 4.5384 10.7171 4.92893 11.1077L5.63603 11.8148ZM19.0711 11.1079L18.364 11.815C17.9735 12.2055 17.3403 12.2055 16.9498 11.815C16.5593 11.4245 16.5593 10.7913 16.9498 10.4008L17.6569 9.69368C18.0474 9.30315 18.6806 9.30315 19.0711 9.69368C19.4616 10.0842 19.4616 10.7174 19.0711 11.1079ZM8 16.7646C8 14.5555 9.79086 12.7646 12 12.7646C14.2091 12.7646 16 14.5555 16 16.7646C16 17.9587 15.4777 19.0305 14.6459 19.7646H9.35412C8.5223 19.0305 8 17.9587 8 16.7646ZM8.97005 21.7646C8.98952 21.7652 9.00899 21.7652 9.02842 21.7646H14.9716C14.991 21.7652 15.0105 21.7652 15.0299 21.7646H21C21.5523 21.7646 22 21.3169 22 20.7646C22 20.2124 21.5523 19.7646 21 19.7646H17.1971C17.7074 18.8823 18 17.8576 18 16.7646C18 13.4509 15.3137 10.7646 12 10.7646C8.68629 10.7646 6 13.4509 6 16.7646C6 17.8576 6.29257 18.8823 6.80293 19.7646H3C2.44772 19.7646 2 20.2124 2 20.7646C2 21.3169 2.44772 21.7646 3 21.7646H8.97005ZM4 17.7646C4.55228 17.7646 5 17.3169 5 16.7646C5 16.2124 4.55228 15.7646 4 15.7646H3C2.44772 15.7646 2 16.2124 2 16.7646C2 17.3169 2.44772 17.7646 3 17.7646H4ZM22 16.7646C22 17.3169 21.5523 17.7646 21 17.7646H20C19.4477 17.7646 19 17.3169 19 16.7646C19 16.2124 19.4477 15.7646 20 15.7646H21C21.5523 15.7646 22 16.2124 22 16.7646Z" fill="#231403"/>
</svg>
