<svg width="24" height="25" viewBox="0 0 24 25" fill="none" xmlns="http://www.w3.org/2000/svg">
<path d="M13 5.76465C13 5.21236 12.5523 4.76465 12 4.76465C11.4477 4.76465 11 5.21236 11 5.76465V6.76465C11 7.31693 11.4477 7.76465 12 7.76465C12.5523 7.76465 13 7.31693 13 6.76465V5.76465Z" fill="#231403"/>
<path d="M9.02842 19.7646C9.00899 19.7652 8.98952 19.7652 8.97006 19.7646H3C2.44772 19.7646 2 19.3169 2 18.7646C2 18.2124 2.44772 17.7646 3 17.7646H6.80293C6.29257 16.8823 6 15.8576 6 14.7646C6 11.4509 8.68629 8.76465 12 8.76465C15.3137 8.76465 18 11.4509 18 14.7646C18 15.8576 17.7074 16.8823 17.1971 17.7646H21C21.5523 17.7646 22 18.2124 22 18.7646C22 19.3169 21.5523 19.7646 21 19.7646H15.0299C15.0105 19.7652 14.991 19.7652 14.9716 19.7646H9.02842ZM12 10.7646C9.79086 10.7646 8 12.5555 8 14.7646C8 15.9587 8.5223 17.0305 9.35412 17.7646H14.6459C15.4777 17.0305 16 15.9587 16 14.7646C16 12.5555 14.2091 10.7646 12 10.7646Z" fill="#231403"/>
<path d="M19.0711 9.1078L18.364 9.81491C17.9735 10.2054 17.3403 10.2054 16.9498 9.81491C16.5593 9.42439 16.5593 8.79122 16.9498 8.4007L17.6569 7.69359C18.0474 7.30306 18.6806 7.30306 19.0711 7.69359C19.4616 8.08411 19.4616 8.71728 19.0711 9.1078Z" fill="#231403"/>
<path d="M4 15.7646C4.55228 15.7646 5 15.3169 5 14.7646C5 14.2124 4.55228 13.7646 4 13.7646H3C2.44772 13.7646 2 14.2124 2 14.7646C2 15.3169 2.44772 15.7646 3 15.7646H4Z" fill="#231403"/>
<path d="M22 14.7646C22 15.3169 21.5523 15.7646 21 15.7646H20C19.4477 15.7646 19 15.3169 19 14.7646C19 14.2124 19.4477 13.7646 20 13.7646H21C21.5523 13.7646 22 14.2124 22 14.7646Z" fill="#231403"/>
<path d="M5.63603 9.81489C6.02656 10.2054 6.65972 10.2054 7.05025 9.81489C7.44077 9.42437 7.44077 8.79121 7.05025 8.40068L6.34314 7.69357C5.95262 7.30305 5.31945 7.30305 4.92893 7.69357C4.5384 8.0841 4.5384 8.71726 4.92893 9.10779L5.63603 9.81489Z" fill="#231403"/>
</svg>
