<svg width="24" height="25" viewBox="0 0 24 25" fill="none" xmlns="http://www.w3.org/2000/svg">
<path fill-rule="evenodd" clip-rule="evenodd" d="M8 16.7647C8 14.5556 9.79086 12.7647 12 12.7647C14.2091 12.7647 16 14.5556 16 16.7647C16 17.9588 15.4777 19.0306 14.6459 19.7647L9.35412 19.7647C8.5223 19.0306 8 17.9588 8 16.7647ZM8.97006 21.7647C8.98952 21.7653 9.00898 21.7653 9.02842 21.7647L14.9716 21.7647C14.991 21.7653 15.0105 21.7653 15.0299 21.7647L21 21.7647C21.5523 21.7647 22 21.317 22 20.7647C22 20.2124 21.5523 19.7647 21 19.7647L17.1971 19.7647C17.7074 18.8824 18 17.8577 18 16.7647C18 13.451 15.3137 10.7647 12 10.7647C8.68629 10.7647 6 13.451 6 16.7647C6 17.8577 6.29257 18.8824 6.80293 19.7647L3 19.7647C2.44772 19.7647 2 20.2124 2 20.7647C2 21.317 2.44772 21.7647 3 21.7647L8.97006 21.7647ZM19.0711 9.69374C19.4616 10.0843 19.4616 10.7174 19.0711 11.108L18.364 11.8151C17.9735 12.2056 17.3403 12.2056 16.9498 11.8151C16.5593 11.4245 16.5593 10.7914 16.9498 10.4008L17.6569 9.69374C18.0474 9.30322 18.6806 9.30322 19.0711 9.69374ZM4 17.7647C4.55228 17.7647 5 17.317 5 16.7647C5 16.2124 4.55228 15.7647 4 15.7647L3 15.7647C2.44772 15.7647 2 16.2124 2 16.7647C2 17.317 2.44772 17.7647 3 17.7647L4 17.7647ZM22 16.7647C22 17.317 21.5523 17.7647 21 17.7647L20 17.7647C19.4477 17.7647 19 17.317 19 16.7647C19 16.2124 19.4477 15.7647 20 15.7647L21 15.7647C21.5523 15.7647 22 16.2124 22 16.7647ZM5.63603 11.8151C6.02656 12.2056 6.65972 12.2056 7.05025 11.8151C7.44077 11.4246 7.44077 10.7914 7.05025 10.4009L6.34314 9.69376C5.95262 9.30323 5.31945 9.30323 4.92893 9.69376C4.5384 10.0843 4.5384 10.7174 4.92893 11.108L5.63603 11.8151ZM13 6.3505L13 3.76471C13 3.21243 12.5523 2.76471 12 2.76471C11.4477 2.76471 11 3.21243 11 3.76471L11 6.3505L10.7071 6.0576C10.3166 5.66708 9.68342 5.66708 9.29289 6.0576C8.90237 6.44813 8.90237 7.08129 9.29289 7.47182L11.2918 9.47073C11.2952 9.47412 11.2986 9.47748 11.302 9.48082C11.4822 9.65649 11.7285 9.76471 12 9.76471C12.1367 9.76471 12.2669 9.7373 12.3856 9.68766C12.4988 9.64043 12.605 9.57148 12.698 9.48082C12.7014 9.47748 12.7048 9.47412 12.7082 9.47073L14.7071 7.47182C15.0976 7.08129 15.0976 6.44813 14.7071 6.0576C14.3166 5.66708 13.6834 5.66708 13.2929 6.0576L13 6.3505Z" fill="#231403"/>
</svg>
