<svg width="16" height="19" viewBox="0 0 16 19" fill="none" xmlns="http://www.w3.org/2000/svg">
<path d="M5 2.76465C4.44772 2.76465 4 3.21236 4 3.76465C4 4.31693 4.44772 4.76465 5 4.76465C5.55228 4.76465 6 4.31693 6 3.76465C6 3.21236 5.55228 2.76465 5 2.76465ZM2.17071 2.76465C2.58254 1.59946 3.69378 0.764648 5 0.764648C6.30622 0.764648 7.41746 1.59946 7.82929 2.76465H15C15.5523 2.76465 16 3.21236 16 3.76465C16 4.31693 15.5523 4.76465 15 4.76465H7.82929C7.41746 5.92984 6.30622 6.76465 5 6.76465C3.69378 6.76465 2.58254 5.92984 2.17071 4.76465H1C0.447715 4.76465 0 4.31693 0 3.76465C0 3.21236 0.447715 2.76465 1 2.76465H2.17071ZM11 8.76465C10.4477 8.76465 10 9.21236 10 9.76465C10 10.3169 10.4477 10.7646 11 10.7646C11.5523 10.7646 12 10.3169 12 9.76465C12 9.21236 11.5523 8.76465 11 8.76465ZM8.17071 8.76465C8.58254 7.59946 9.69378 6.76465 11 6.76465C12.3062 6.76465 13.4175 7.59946 13.8293 8.76465H15C15.5523 8.76465 16 9.21236 16 9.76465C16 10.3169 15.5523 10.7646 15 10.7646H13.8293C13.4175 11.9298 12.3062 12.7646 11 12.7646C9.69378 12.7646 8.58254 11.9298 8.17071 10.7646H1C0.447715 10.7646 0 10.3169 0 9.76465C0 9.21236 0.447715 8.76465 1 8.76465H8.17071ZM5 14.7646C4.44772 14.7646 4 15.2124 4 15.7646C4 16.3169 4.44772 16.7646 5 16.7646C5.55228 16.7646 6 16.3169 6 15.7646C6 15.2124 5.55228 14.7646 5 14.7646ZM2.17071 14.7646C2.58254 13.5995 3.69378 12.7646 5 12.7646C6.30622 12.7646 7.41746 13.5995 7.82929 14.7646H15C15.5523 14.7646 16 15.2124 16 15.7646C16 16.3169 15.5523 16.7646 15 16.7646H7.82929C7.41746 17.9298 6.30622 18.7646 5 18.7646C3.69378 18.7646 2.58254 17.9298 2.17071 16.7646H1C0.447715 16.7646 0 16.3169 0 15.7646C0 15.2124 0.447715 14.7646 1 14.7646H2.17071Z" fill="#231403"/>
</svg>
