<svg width="24" height="25" viewBox="0 0 24 25" fill="none" xmlns="http://www.w3.org/2000/svg">
<path d="M4 4.76465C4 3.66008 4.89543 2.76465 6 2.76465H18C19.1046 2.76465 20 3.66008 20 4.76465V20.7646C20 21.8692 19.1046 22.7646 18 22.7646H6C4.89543 22.7646 4 21.8692 4 20.7646V4.76465ZM18 4.76465L6 4.76465V20.7646H18V4.76465Z" fill="#231403"/>
<path d="M13 18.7646C13 19.3169 12.5523 19.7646 12 19.7646C11.4477 19.7646 11 19.3169 11 18.7646C11 18.2124 11.4477 17.7646 12 17.7646C12.5523 17.7646 13 18.2124 13 18.7646Z" fill="#231403"/>
</svg>
