<svg width="24" height="25" viewBox="0 0 24 25" fill="none" xmlns="http://www.w3.org/2000/svg">
<path d="M2 6.26465C2 5.16008 2.89543 4.26465 4 4.26465H20C21.1046 4.26465 22 5.16008 22 6.26465V19.2646C22 20.3692 21.1046 21.2646 20 21.2646H4C2.89543 21.2646 2 20.3692 2 19.2646V6.26465ZM11 6.26465H4V9.26465H11V6.26465ZM13 6.26465V9.26465H20V6.26465H13ZM20 11.2646H13V14.2646H20V11.2646ZM20 16.2646H13V19.2646H20V16.2646ZM11 19.2646V16.2646H4V19.2646H11ZM4 14.2646H11V11.2646H4V14.2646Z" fill="#231403"/>
</svg>
