<svg width="24" height="25" viewBox="0 0 24 25" fill="none" xmlns="http://www.w3.org/2000/svg">
<path d="M9 5.76465C9 4.10779 10.3431 2.76465 12 2.76465C13.6569 2.76465 15 4.10779 15 5.76465V13.7644C16.213 14.6755 17 16.1277 17 17.7646C17 20.5261 14.7614 22.7646 12 22.7646C9.23858 22.7646 7 20.5261 7 17.7646C7 16.1277 7.78702 14.6755 9 13.7644V5.76465ZM12 4.76465C11.4477 4.76465 11 5.21236 11 5.76465V14.2998C11 14.6567 10.8097 14.9866 10.5007 15.1654C9.60141 15.6856 9 16.6555 9 17.7646C9 19.4215 10.3431 20.7646 12 20.7646C13.6569 20.7646 15 19.4215 15 17.7646C15 16.6555 14.3986 15.6856 13.4993 15.1654C13.1903 14.9866 13 14.6567 13 14.2998V5.76465C13 5.21236 12.5523 4.76465 12 4.76465Z" fill="#231403"/>
</svg>
