<svg width="24" height="25" viewBox="0 0 24 25" fill="none" xmlns="http://www.w3.org/2000/svg">
<path d="M5 6.76465C5 5.66008 5.89543 4.76465 7 4.76465H17C18.1046 4.76465 19 5.66008 19 6.76465V7.76465C19 8.31693 18.5523 8.76465 18 8.76465C17.4477 8.76465 17 8.31693 17 7.76465V6.76465H13V18.7646H14C14.5523 18.7646 15 19.2124 15 19.7646C15 20.3169 14.5523 20.7646 14 20.7646H10C9.44772 20.7646 9 20.3169 9 19.7646C9 19.2124 9.44772 18.7646 10 18.7646H11V6.76465H7V7.76465C7 8.31693 6.55228 8.76465 6 8.76465C5.44772 8.76465 5 8.31693 5 7.76465V6.76465Z" fill="#231403"/>
</svg>
