<svg width="24" height="25" viewBox="0 0 24 25" fill="none" xmlns="http://www.w3.org/2000/svg">
<path d="M19 2.76465C20.1046 2.76465 21 3.66008 21 4.76465V6.76465C21 7.86922 20.1046 8.76465 19 8.76465L5 8.76465C3.89543 8.76465 3 7.86922 3 6.76465L3 4.76465C3 3.66008 3.89543 2.76465 5 2.76465L19 2.76465ZM19 6.76465V4.76465L5 4.76465V6.76465L19 6.76465Z" fill="#231403"/>
<path d="M19 16.7646C20.1046 16.7646 21 17.6601 21 18.7646V20.7646C21 21.8692 20.1046 22.7646 19 22.7646H5C3.89543 22.7646 3 21.8692 3 20.7646L3 18.7646C3 17.6601 3.89543 16.7646 5 16.7646L19 16.7646ZM19 20.7646V18.7646H5V20.7646H19Z" fill="#231403"/>
<path d="M19 9.76465C20.1046 9.76465 21 10.6601 21 11.7646V13.7646C21 14.8692 20.1046 15.7646 19 15.7646L5 15.7646C3.89543 15.7646 3 14.8692 3 13.7646L3 11.7646C3 10.6601 3.89543 9.76465 5 9.76465L19 9.76465ZM19 13.7646V11.7646L5 11.7646V13.7646L19 13.7646Z" fill="#231403"/>
</svg>
