<svg width="24" height="25" viewBox="0 0 24 25" fill="none" xmlns="http://www.w3.org/2000/svg">
<path d="M12 8.41482C12.0001 7.55322 12.2968 6.71792 12.8403 6.04936C13.3838 5.38079 14.1409 4.91972 14.9843 4.74368C15.8277 4.56764 16.7061 4.68735 17.4716 5.08269C18.2371 5.47803 18.8432 6.12489 19.188 6.91452L22.5 6.91455L19.4754 9.93916C19.2785 12.9813 17.9311 15.8345 15.707 17.9194C13.4828 20.0042 10.5486 21.1645 7.50002 21.1646C4.50002 21.1646 3.75002 20.0396 3.75002 20.0396C3.75002 20.0396 6.75002 18.9146 8.25002 16.6646C8.25002 16.6646 2.25002 13.6646 3.75002 5.41455C3.75002 5.41455 7.50002 9.16455 11.9987 9.91455L12 8.41482Z" stroke="#231403" stroke-width="2" stroke-linecap="round" stroke-linejoin="round"/>
</svg>
