<svg width="24" height="25" viewBox="0 0 24 25" fill="none" xmlns="http://www.w3.org/2000/svg">
<path d="M19 3.76465C20.1046 3.76465 21 4.66008 21 5.76465V9.76465C21 10.8692 20.1046 11.7646 19 11.7646L5 11.7646C3.89543 11.7646 3 10.8692 3 9.76465L3 5.76465C3 4.66008 3.89543 3.76465 5 3.76465L19 3.76465ZM19 9.76465V5.76465L5 5.76465L5 9.76465L19 9.76465Z" fill="#231403"/>
<path d="M19 13.7646C20.1046 13.7646 21 14.6601 21 15.7646V19.7646C21 20.8692 20.1046 21.7646 19 21.7646H5C3.89543 21.7646 3 20.8692 3 19.7646L3 15.7646C3 14.6601 3.89543 13.7646 5 13.7646L19 13.7646ZM19 19.7646V15.7646L5 15.7646L5 19.7646H19Z" fill="#231403"/>
</svg>
