<svg width="24" height="25" viewBox="0 0 24 25" fill="none" xmlns="http://www.w3.org/2000/svg">
<path d="M3 5.76465C3 4.66008 3.89543 3.76465 5 3.76465H9C10.1046 3.76465 11 4.66008 11 5.76465V19.7646C11 20.8692 10.1046 21.7646 9 21.7646H5C3.89543 21.7646 3 20.8692 3 19.7646V5.76465ZM9 5.76465H5V19.7646H9V5.76465Z" fill="#231403"/>
<path d="M13 5.76465C13 4.66008 13.8954 3.76465 15 3.76465H19C20.1046 3.76465 21 4.66008 21 5.76465V19.7646C21 20.8692 20.1046 21.7646 19 21.7646H15C13.8954 21.7646 13 20.8692 13 19.7646V5.76465ZM19 5.76465H15V19.7646H19V5.76465Z" fill="#231403"/>
</svg>
