<svg width="24" height="25" viewBox="0 0 24 25" fill="none" xmlns="http://www.w3.org/2000/svg">
<path d="M18 4.76465C18 4.21236 17.5523 3.76465 17 3.76465C16.4477 3.76465 16 4.21236 16 4.76465V11.7646C16 13.9738 14.2091 15.7646 12 15.7646C9.79086 15.7646 8 13.9738 8 11.7646L8 4.76465C8 4.21236 7.55229 3.76465 7 3.76465C6.44772 3.76465 6 4.21236 6 4.76465V11.7646C6 15.0784 8.68629 17.7646 12 17.7646C15.3137 17.7646 18 15.0784 18 11.7646V4.76465ZM7 19.7646C6.44772 19.7646 6 20.2124 6 20.7646C6 21.3169 6.44772 21.7646 7 21.7646H17C17.5523 21.7646 18 21.3169 18 20.7646C18 20.2124 17.5523 19.7646 17 19.7646H7Z" fill="#231403"/>
</svg>
