<svg width="17" height="21" viewBox="0 0 17 21" fill="none" xmlns="http://www.w3.org/2000/svg">
<path d="M8.79289 1.05754C9.18342 0.667017 9.81658 0.667017 10.2071 1.05754L13.2071 4.05754C13.5976 4.44807 13.5976 5.08123 13.2071 5.47176L10.2071 8.47176C9.81658 8.86228 9.18342 8.86228 8.79289 8.47176C8.40237 8.08123 8.40237 7.44807 8.79289 7.05754L10.0858 5.76465H8.5C4.95228 5.76465 2 8.71693 2 12.2646C2 15.8124 4.95228 18.7646 8.5 18.7646C12.0477 18.7646 15 15.8124 15 12.2646C15 11.7124 15.4477 11.2646 16 11.2646C16.5523 11.2646 17 11.7124 17 12.2646C17 16.9169 13.1523 20.7646 8.5 20.7646C3.84772 20.7646 0 16.9169 0 12.2646C0 7.61236 3.84772 3.76465 8.5 3.76465H10.0858L8.79289 2.47176C8.40237 2.08123 8.40237 1.44807 8.79289 1.05754Z" fill="#231403"/>
</svg>
