<svg width="16" height="21" viewBox="0 0 16 21" fill="none" xmlns="http://www.w3.org/2000/svg">
<path d="M8 2.76465C6.35228 2.76465 5 4.11693 5 5.76465V8.76465H14C15.1046 8.76465 16 9.66008 16 10.7646V18.7646C16 19.8692 15.1046 20.7646 14 20.7646H2C0.895432 20.7646 0 19.8692 0 18.7646V10.7646C0 9.66008 0.895431 8.76465 2 8.76465H3V5.76465C3 3.01236 5.24771 0.764648 8 0.764648C10.7523 0.764648 13 3.01236 13 5.76465C13 6.31693 12.5523 6.76465 12 6.76465C11.4477 6.76465 11 6.31693 11 5.76465C11 4.11693 9.64772 2.76465 8 2.76465ZM2 10.7646V18.7646H14V10.7646H2Z" fill="#231403"/>
</svg>
