<svg width="24" height="25" viewBox="0 0 24 25" fill="none" xmlns="http://www.w3.org/2000/svg">
<path d="M13.4179 2.85615C13.7727 3.01934 14 3.37413 14 3.76466V21.7647C14 22.1552 13.7727 22.51 13.4179 22.6732C13.0631 22.8364 12.6457 22.7781 12.3492 22.5239L5.63008 16.7647H3C2.44772 16.7647 2 16.3169 2 15.7647V9.76466C2 9.21238 2.44772 8.76466 3 8.76466H5.63008L12.3492 3.00541C12.6457 2.75125 13.0631 2.69296 13.4179 2.85615ZM12 5.93888L6.65079 10.5239C6.46955 10.6793 6.23871 10.7647 6 10.7647H4V14.7647H6C6.23871 14.7647 6.46955 14.8501 6.65079 15.0054L12 19.5904V5.93888ZM17.2929 6.05756C17.6834 5.66703 18.3166 5.66703 18.7071 6.05756L18.7078 6.05827L18.7086 6.05903L18.7102 6.0607L18.7141 6.06461L18.724 6.07473C18.7315 6.08249 18.7409 6.0923 18.752 6.10416C18.7742 6.12787 18.8034 6.15978 18.8385 6.19991C18.9087 6.28013 19.0028 6.39336 19.1125 6.53966C19.3318 6.83212 19.6147 7.25794 19.8944 7.81745C20.4556 8.93974 21 10.5919 21 12.7647C21 14.9374 20.4556 16.5896 19.8944 17.7119C19.6147 18.2714 19.3318 18.6972 19.1125 18.9897C19.0028 19.136 18.9087 19.2492 18.8385 19.3294C18.8034 19.3695 18.7742 19.4015 18.752 19.4252C18.7409 19.437 18.7315 19.4468 18.724 19.4546L18.7141 19.4647L18.7102 19.4686L18.7086 19.4703L18.7078 19.4711L18.7071 19.4718C18.3166 19.8623 17.6834 19.8623 17.2929 19.4718C16.904 19.0829 16.9024 18.4535 17.2879 18.0626L17.2929 18.0573C17.3 18.0497 17.3138 18.0348 17.3334 18.0124C17.3725 17.9676 17.4347 17.8934 17.5125 17.7897C17.6682 17.5821 17.8853 17.2579 18.1056 16.8174C18.5444 15.9397 19 14.5919 19 12.7647C19 10.9374 18.5444 9.58959 18.1056 8.71188C17.8853 8.27138 17.6682 7.9472 17.5125 7.73966C17.4347 7.63596 17.3725 7.56169 17.3334 7.51692C17.3138 7.49454 17.3 7.47958 17.2929 7.47204L17.2879 7.46673C16.9024 7.07581 16.904 6.4464 17.2929 6.05756ZM15.2929 9.05756C15.6834 8.66703 16.3166 8.66703 16.7071 9.05756L16.7085 9.05899L16.7101 9.06052L16.7134 9.06388L16.7211 9.0718L16.7408 9.09244C16.7557 9.10834 16.7741 9.12853 16.7955 9.15303C16.8384 9.20201 16.8934 9.26836 16.9563 9.35216C17.0818 9.51962 17.2397 9.75794 17.3944 10.0674C17.7056 10.6897 18 11.5919 18 12.7647C18 13.9374 17.7056 14.8396 17.3944 15.4619C17.2397 15.7714 17.0818 16.0097 16.9563 16.1772C16.8934 16.261 16.8384 16.3273 16.7955 16.3763C16.7741 16.4008 16.7557 16.421 16.7408 16.4369L16.7211 16.4575L16.7134 16.4654L16.7101 16.4688L16.7085 16.4703L16.7078 16.4711C16.3173 16.8616 15.6834 16.8623 15.2929 16.4718C14.9057 16.0846 14.9024 15.4589 15.2829 15.0677C15.2843 15.0662 15.2868 15.0634 15.2904 15.0593C15.3022 15.0458 15.3253 15.0184 15.3562 14.9772C15.4182 14.8946 15.5103 14.7579 15.6056 14.5674C15.7944 14.1897 16 13.5919 16 12.7647C16 11.9374 15.7944 11.3396 15.6056 10.9619C15.5103 10.7714 15.4182 10.6347 15.3562 10.5522C15.3253 10.511 15.3022 10.4836 15.2904 10.47C15.2868 10.466 15.2843 10.4632 15.2829 10.4617C14.9024 10.0704 14.9057 9.44473 15.2929 9.05756Z" fill="#231403"/>
</svg>
