<svg width="24" height="25" viewBox="0 0 24 25" fill="none" xmlns="http://www.w3.org/2000/svg">
<path d="M13.4179 2.85615C13.7727 3.01934 14 3.37413 14 3.76466V21.7647C14 22.1552 13.7727 22.51 13.4179 22.6732C13.0631 22.8364 12.6457 22.7781 12.3492 22.5239L5.63008 16.7647H3C2.44772 16.7647 2 16.3169 2 15.7647V9.76466C2 9.21238 2.44772 8.76466 3 8.76466H5.63008L12.3492 3.00541C12.6457 2.75125 13.0631 2.69296 13.4179 2.85615ZM12 5.93888L6.65079 10.5239C6.46955 10.6793 6.23871 10.7647 6 10.7647H4V14.7647H6C6.23871 14.7647 6.46955 14.8501 6.65079 15.0054L12 19.5904V5.93888ZM16.2929 10.0576C16.6834 9.66703 17.3166 9.66703 17.7071 10.0576L19 11.3504L20.2929 10.0576C20.6834 9.66703 21.3166 9.66703 21.7071 10.0576C22.0976 10.4481 22.0976 11.0812 21.7071 11.4718L20.4142 12.7647L21.7071 14.0576C22.0976 14.4481 22.0976 15.0812 21.7071 15.4718C21.3166 15.8623 20.6834 15.8623 20.2929 15.4718L19 14.1789L17.7071 15.4718C17.3166 15.8623 16.6834 15.8623 16.2929 15.4718C15.9024 15.0812 15.9024 14.4481 16.2929 14.0576L17.5858 12.7647L16.2929 11.4718C15.9024 11.0812 15.9024 10.4481 16.2929 10.0576Z" fill="#231403"/>
</svg>
