<svg width="22" height="21" viewBox="0 0 22 21" fill="none" xmlns="http://www.w3.org/2000/svg">
<path d="M11.0002 12.7647C10.4479 12.7647 10.0002 12.3169 10.0002 11.7647V8.76465C10.0002 8.21237 10.4479 7.76465 11.0002 7.76465C11.5525 7.76465 12.0002 8.21237 12.0002 8.76465V11.7647C12.0002 12.3169 11.5525 12.7647 11.0002 12.7647Z" fill="#231403"/>
<path d="M9.50017 15.2647C9.50017 14.4362 10.1717 13.7647 11.0002 13.7647C11.8286 13.7647 12.5002 14.4362 12.5002 15.2647C12.5002 16.0931 11.8286 16.7647 11.0002 16.7647C10.1717 16.7647 9.50017 16.0931 9.50017 15.2647Z" fill="#231403"/>
<path d="M9.23033 1.98025C9.98016 0.555579 12.0202 0.55557 12.77 1.98025L21.1136 17.8332C21.8146 19.165 20.8488 20.7647 19.3438 20.7647H2.65653C1.15151 20.7647 0.185739 19.165 0.886697 17.8332L9.23033 1.98025ZM19.3438 18.7647L11.0002 2.91174L2.65653 18.7647L19.3438 18.7647Z" fill="#231403"/>
</svg>
