<svg width="24" height="25" viewBox="0 0 24 25" fill="none" xmlns="http://www.w3.org/2000/svg">
<path d="M4 3.76465C2.89543 3.76465 2 4.66008 2 5.76465V10.7646V19.7646C2 20.8692 2.89543 21.7646 4 21.7646H20C21.1046 21.7646 22 20.8692 22 19.7646V10.7646V5.76465C22 4.66008 21.1046 3.76465 20 3.76465H4ZM20 5.76465V9.76465H4V5.76465H20ZM4 11.7646H20V19.7646H4V11.7646ZM10 7.76465C10 8.31693 9.55228 8.76465 9 8.76465C8.44772 8.76465 8 8.31693 8 7.76465C8 7.21236 8.44772 6.76465 9 6.76465C9.55228 6.76465 10 7.21236 10 7.76465ZM6 8.76465C6.55228 8.76465 7 8.31693 7 7.76465C7 7.21236 6.55228 6.76465 6 6.76465C5.44772 6.76465 5 7.21236 5 7.76465C5 8.31693 5.44772 8.76465 6 8.76465Z" fill="#231403"/>
</svg>
