<svg width="24" height="25" viewBox="0 0 24 25" fill="none" xmlns="http://www.w3.org/2000/svg">
<path d="M18.8061 13.6834C19.1275 13.6176 19.4348 13.5133 19.7231 13.3755C21.0698 12.7317 22 11.3568 22 9.76465C22 7.55551 20.2092 5.76465 18 5.76465C16.8153 5.76465 15.7498 6.281 15.0188 7.09773C14.6505 7.50926 14.6855 8.14146 15.097 8.50978C15.5085 8.87811 16.1407 8.84309 16.5091 8.43156C16.8767 8.02081 17.4078 7.76466 18 7.76465C18.069 7.76465 18.1373 7.76815 18.2045 7.77497C18.4734 7.80229 18.7266 7.88288 18.9533 8.00604C19.5768 8.34472 20 9.00526 20 9.76465C20 10.5931 19.4963 11.3039 18.7785 11.6075C18.5392 11.7087 18.2762 11.7646 18.0001 11.7646H18H3C2.44772 11.7646 2 12.2124 2 12.7646C2 13.3169 2.44772 13.7646 3 13.7646H18H18C18.2762 13.7646 18.5458 13.7367 18.8061 13.6834ZM5 10.7646H10.5H10.5L10.5162 10.7646C10.5969 10.7641 10.6768 10.7597 10.7556 10.7517C12.0163 10.6237 13 9.55907 13 8.26465C13 6.88394 11.8807 5.76465 10.5 5.76465C9.75951 5.76465 9.09317 6.08787 8.63683 6.59773C8.26851 7.00926 8.30353 7.64146 8.71505 8.00978C9.12658 8.37811 9.75878 8.34309 10.1271 7.93156C10.2201 7.82768 10.352 7.76465 10.5 7.76465C10.7761 7.76465 11 7.98851 11 8.26465C11 8.54078 10.7762 8.76464 10.5 8.76465H10.5H5C4.44772 8.76465 4 9.21236 4 9.76465C4 10.3169 4.44772 10.7646 5 10.7646ZM16.5 14.7646L8 14.7646C7.44771 14.7646 7 15.2124 7 15.7646C7 16.3169 7.44771 16.7646 8 16.7646L16.5 16.7646C16.7762 16.7647 17 16.9885 17 17.2646C17 17.5408 16.7761 17.7646 16.5 17.7646C16.352 17.7646 16.2201 17.7016 16.1271 17.5977C15.7588 17.1862 15.1266 17.1512 14.7151 17.5195C14.3035 17.8878 14.2685 18.52 14.6368 18.9316C15.0932 19.4414 15.7595 19.7646 16.5 19.7646C17.8807 19.7646 19 18.6454 19 17.2646C19 15.9702 18.0163 14.9056 16.7556 14.7776C16.6768 14.7696 16.5969 14.7652 16.5162 14.7647L16.5 14.7646Z" fill="#231403"/>
</svg>
